<svg xmlns="http://www.w3.org/2000/svg" viewBox="0 0 273.73 311.81"><g data-name="Слой 2"><g data-name="Слой 1"><path d="M230.29 7c-50.6-25.45-125.17 20.57-166.55 102.8q-1.92 3.83-3.71 7.65c21.8-16.47 45.44-22.17 64-12.82C156.54 121 161.34 177 134.78 229.79c-16.87 33.53-42.34 57.66-67 66.62a64.41 64.41 0 0 0 12.66 8.39C131 330.26 205.61 284.24 247 202S280.89 32.48 230.29 7z" fill="#7c508f"/><path d="M60 117.45c-16.27 12.3-31.52 30.6-42.87 53.16C-9.4 223.39-4.6 279.42 27.88 295.77c11.85 6 25.74 5.79 39.9.64C30.21 264.7 26.33 189.92 60 117.45z" fill="#a77eb5"/><path d="M134.78 229.79C161.34 177 156.54 121 124.06 104.63c-18.59-9.35-42.23-3.65-64 12.82-33.7 72.47-29.82 147.25 7.75 179 24.63-9 50.1-33.13 66.97-66.66z" style="mix-blend-mode:multiply" fill="#7c5090"/><path d="M134.78 229.79C161.34 177 156.54 121 124.06 104.63c-18.59-9.35-42.23-3.65-64 12.82-33.7 72.47-29.82 147.25 7.75 179 24.63-9 50.1-33.13 66.97-66.66z" fill="#512766"/><path d="M196 79.61h-17.31c-35.19 0-66.93 26.85-72.25 61.12l-3.87 24.89c-2.59 16.69 1.57 32.42 11.71 44.26 10 11.66 24.55 18.08 41 18.08h26.83a15.06 15.06 0 0 0 0-30.12h-23.39c-8.23 0-15.46-3.15-20.37-8.89s-7.05-13.69-5.75-22.09l3.89-24.86c2.81-18 19.82-32.2 38.75-32.2H196a15.07 15.07 0 1 0 0-30.14z" fill="#fff"/></g></g></svg>