<svg class="flag_logo_inner_2" viewBox="0 0 75 33" xmlns="http://www.w3.org/2000/svg"><g fill="#fff"><path d="M8.453.255a10.087 10.087 0 0 1 5.644.874A9.502 9.502 0 0 1 18 4.538a8.741 8.741 0 0 1 1.395 4.237 8.716 8.716 0 0 1-1.06 4.733c-.908 1.665-2.341 3.017-4.018 3.862-2.946 1.508-6.624 1.42-9.49-.242-1.603-.923-2.953-2.318-3.763-4.003C.246 11.473 0 9.55.325 7.736a8.856 8.856 0 0 1 1.839-3.985C3.71 1.818 6.028.571 8.454.255m3.42 4.303c-.002 3.164-.004 6.328 0 9.49 1.335-.484 2.52-1.47 3.126-2.785a4.614 4.614 0 0 0-.013-3.944c-.609-1.305-1.79-2.275-3.114-2.76M4.605 7.323a4.616 4.616 0 0 0 .006 3.971c.595 1.277 1.74 2.235 3.031 2.727-.002-3.146.007-6.29-.005-9.436-1.291.5-2.44 1.453-3.032 2.738zM63.942.394H75v3.848h-6.828v13.97h-4.23V.395zM41.855 18.259C45.011 12.32 48.152 6.376 51.317.443c3.137 5.943 6.29 11.877 9.427 17.82-1.63-.01-3.26-.002-4.891-.003-.417-.825-.84-1.646-1.254-2.472-2.2-.002-4.401 0-6.602 0-.405.83-.841 1.644-1.253 2.472-1.63-.002-3.259.001-4.889-.001m7.854-5.83h3.178a322.345 322.345 0 0 1-1.57-3.083c-.545 1.023-1.066 2.058-1.608 3.084zM20.008 18.26c3.15-5.94 6.298-11.88 9.446-17.822 3.142 5.943 6.297 11.88 9.441 17.82-1.632.002-3.264.002-4.897.002-1.511-2.95-3.038-5.89-4.562-8.832-1.51 2.946-3.025 5.888-4.54 8.832h-4.888zM12.55 25.664c1.328-1.209 3.531-1.312 4.933-.173.611.499.977 1.247 1.09 2.028l-1.856-.001c-.15-.436-.466-.828-.908-.975-.58-.19-1.275-.136-1.763.26-1.054.883-.916 2.88.332 3.516.876.48 2.151.025 2.376-1.004.617.005 1.235-.012 1.851.01-.125.94-.6 1.86-1.418 2.359-1.441.889-3.475.722-4.71-.465-.734-.705-1.095-1.75-1.067-2.763-.022-1.036.37-2.095 1.14-2.792zM38.554 30.504c.822-1.936 1.655-3.87 2.475-5.807.276-.001.552 0 .83-.002.858 1.935 1.71 3.874 2.565 5.81.253-.002.506-.002.76 0 0 .832 0 1.663-.002 2.495h-1.539v-.816h-4.276V33h-1.563v-2.496h.75m1.9 0h2.018c-.349-.87-.68-1.748-1.03-2.618-.33.872-.66 1.744-.989 2.618zM50.102 28.37c1.207-1.22 2.437-2.413 3.647-3.627h.699v7.417h-1.955v-3.58c-1.222 1.197-2.418 2.42-3.65 3.606-.226-.003-.45-.003-.674-.007.007-2.463 0-4.926.003-7.389h1.931v3.58zM21.344 24.79h5.425v1.703h-1.793v5.667h-1.84v-5.667h-1.792V24.79zM29.473 25.177c-.078-.115-.057-.257-.066-.387h2.118c.468.905.91 1.826 1.384 2.728.418-.908.837-1.816 1.249-2.728h2.044c.039.378-.218.677-.348 1.01-1.037 2.118-2.058 4.244-3.098 6.361-.68-.003-1.363 0-2.045-.002.012-.281.17-.52.286-.765.29-.604.577-1.21.871-1.813-.802-1.466-1.597-2.936-2.395-4.404zM58.365 25.954c.426-.728 1.256-1.154 2.08-1.165l3.336.001v7.37H61.92v-2.169h-.942c-.415.72-.831 1.44-1.24 2.166-.709.007-1.417.002-2.125.001-.04-.303.173-.531.312-.774.374-.607.74-1.22 1.113-1.827-1.117-.778-1.38-2.46-.672-3.603m1.728.742c-.455.449-.3 1.414.353 1.574.489.043.982.006 1.473.019v-1.796c-.433 0-.865-.002-1.296-.001a.687.687 0 0 0-.53.204z"/></g></svg>