<svg xmlns="http://www.w3.org/2000/svg" viewBox="0 0 35.33 34"><g data-name="Слой 2"><path d="M29.77 0H5.57A5.47 5.47 0 0 0 0 5.36v23.29A5.46 5.46 0 0 0 5.57 34h24.2a5.46 5.46 0 0 0 5.56-5.35V5.36A5.46 5.46 0 0 0 29.77 0zm-2.16 22a9.86 9.86 0 0 1-2.12 3l-.2.15a8.43 8.43 0 0 1-2.12 1.41A11.67 11.67 0 0 1 17 27.69a10.91 10.91 0 0 1-6-2.24 10.58 10.58 0 0 1-3.15-3.78 10.37 10.37 0 0 1-1.09-3.86 10.12 10.12 0 0 1 1-5.3A10.89 10.89 0 0 1 12 7.86a11.31 11.31 0 0 1 6.54-1.61 10.72 10.72 0 0 1 5.7 1.89c.33.22.63.47.95.72.14.11.15.2 0 .33-1 .91-1.91 1.83-2.86 2.75-.14.14-.22.05-.32 0a6.17 6.17 0 0 0-3-1.36 6.64 6.64 0 0 0-5 1.2 6.11 6.11 0 0 0-2.25 2.93 6.53 6.53 0 0 0-.1 4.21 6.42 6.42 0 0 0 3.25 3.87 7 7 0 0 0 5.22.47 6.75 6.75 0 0 0 1.67-.74 9.56 9.56 0 0 0 1.12-1 5.12 5.12 0 0 0 1.06-2.09c0-.22 0-.3-.26-.3h-5.49c-.28 0-.34-.08-.34-.34v-3.57c0-.17.05-.24.24-.24h10c.22 0 .25.1.28.28a11.55 11.55 0 0 1-.8 6.74z" fill="#662484" data-name="Слой 1"/></g></svg>