<svg id="Слой_1" xmlns="http://www.w3.org/2000/svg" viewBox="0 0 29 29"><style>.st0{fill:#662484}</style><path class="st0" d="M20.8 29H2.7C1.2 29 0 27.8 0 26.3v-20c0-1.5 1.2-2.7 2.7-2.7h2.7c.5 0 .9.4.9.9s-.4.9-.9.9H2.7c-.5 0-.9.4-.9.9v19.9c0 .5.4.9.9.9h18.1c.5 0 .9-.4.9-.9v-2.8c0-.5.4-.9.9-.9s.9.4.9.9v2.8c.1 1.6-1.2 2.8-2.7 2.8zm1.9-17.2c-.5 0-.9-.4-.9-.9V6.3c0-.5-.4-.9-.9-.9h-2.7c-.5 0-.9-.4-.9-.9s.4-.9.9-.9h2.7c1.5 0 2.7 1.2 2.7 2.7v4.5c0 .6-.4 1-.9 1zm-5.5-3.6H6.3c-1 0-1.8-.8-1.8-1.8V4.5c0-1 .8-1.8 1.8-1.8v-.8C6.3.9 7.2 0 8.2 0h7.1c1 0 1.9.9 1.9 1.9v.8c1 0 1.8.8 1.8 1.8v1.8c0 1-.8 1.8-1.8 1.9zM8.3 1.8c-.1 0-.1 0-.1.1v.8c0 1-.8 1.8-1.8 1.8v1.8h10.9V4.5c-1 0-1.8-.8-1.8-1.8v-.8c0-.1 0-.1-.1-.1H8.3zm13.5 22.7c-4 0-7.3-3.3-7.3-7.3s3.3-7.3 7.3-7.2c4 0 7.3 3.3 7.3 7.3s-3.3 7.2-7.3 7.2zm0-12.7c-3 0-5.4 2.4-5.4 5.4s2.4 5.4 5.5 5.4 5.4-2.4 5.4-5.5-2.5-5.3-5.5-5.3z"/><path class="st0" d="M21.1 19.5c0-.5.1-.9.2-1.3.1-.3.4-.6.8-1s.6-.6.7-.8c.2-.2.2-.5.2-.8 0-.4-.1-.6-.3-.8-.2-.2-.5-.3-.8-.3-.3 0-.6.1-.8.3-.2.2-.3.5-.3.8h-1.4c0-.7.3-1.2.7-1.6.5-.4 1.2-.6 1.8-.6.8 0 1.4.2 1.8.6.4.4.7.9.7 1.7 0 .6-.3 1.3-.9 1.9l-.7.7c-.3.3-.4.7-.4 1.3.1-.1-1.3-.1-1.3-.1zm-.1 1.8c0-.2.1-.4.2-.6.2-.1.4-.2.6-.2.2 0 .4.1.6.2.1.1.2.3.2.5s-.1.4-.2.5c-.1.1-.4.2-.6.2-.3 0-.5-.1-.6-.2-.1 0-.2-.2-.2-.4z"/></svg>