<svg width="29" height="29" viewBox="0 0 29 29" xmlns="http://www.w3.org/2000/svg"><path d="M20.84 29H2.72A2.73 2.73 0 0 1 0 26.28V6.35c0-1.5 1.22-2.72 2.72-2.72h2.72a.9.9 0 0 1 0 1.8H2.72c-.5 0-.9.42-.9.92v19.93c0 .5.4.9.9.9h18.12c.5 0 .91-.4.91-.9V23.5a.9.9 0 1 1 1.81 0v2.78c0 1.5-1.22 2.72-2.72 2.72zm1.82-17.22a.9.9 0 0 1-.91-.9V6.34c0-.5-.4-.91-.91-.91h-2.71a.9.9 0 1 1 0-1.82h2.71c1.5 0 2.72 1.23 2.72 2.73v4.53c0 .5-.4.9-.9.9zm-5.44-3.62H6.34c-1 0-1.8-.82-1.8-1.82V4.53c0-1 .8-1.81 1.8-1.81V1.9C6.34.85 7.2 0 8.24 0h7.07c1.05 0 1.9.85 1.9 1.9l.01.82c1 0 1.81.81 1.81 1.81v1.82c0 1-.81 1.8-1.8 1.8zM8.25 1.8a.1.1 0 0 0-.1.1v.8c0 1-.8 1.82-1.8 1.82v1.81h10.87v-1.8c-1-.01-1.81-.82-1.81-1.82V1.9a.1.1 0 0 0-.1-.09H8.25zm13.5 22.66a7.26 7.26 0 1 1 .02-14.52 7.26 7.26 0 0 1-.02 14.52zm0-12.69a5.44 5.44 0 1 0 .01 10.89 5.44 5.44 0 0 0-.01-10.89zm-.54 9.06a.9.9 0 0 1-.64-.26l-2.18-2.18a.9.9 0 1 1 1.28-1.28l1.44 1.44 2.63-3.52a.9.9 0 1 1 1.45 1.09l-3.26 4.35a.9.9 0 0 1-.66.36h-.06z" fill="#FFF" fill-rule="nonzero"/></svg>