<svg xmlns="http://www.w3.org/2000/svg" viewBox="0 0 29 29"><path d="M20.8 29H2.7C1.2 29 0 27.8 0 26.3v-20c0-1.5 1.2-2.7 2.7-2.7h2.7c.5 0 .9.4.9.9s-.4.9-.9.9H2.7c-.5 0-.9.4-.9.9v19.9c0 .5.4.9.9.9h18.1c.5 0 .9-.4.9-.9v-2.8c0-.5.4-.9.9-.9s.9.4.9.9v2.8c.1 1.6-1.2 2.8-2.7 2.8zm1.9-17.2c-.5 0-.9-.4-.9-.9V6.3c0-.5-.4-.9-.9-.9h-2.7c-.5 0-.9-.4-.9-.9s.4-.9.9-.9h2.7c1.5 0 2.7 1.2 2.7 2.7v4.5c0 .6-.4 1-.9 1zm-5.5-3.6H6.3c-1 0-1.8-.8-1.8-1.8V4.5c0-1 .8-1.8 1.8-1.8v-.8C6.3.9 7.2 0 8.2 0h7.1c1 0 1.9.9 1.9 1.9v.8c1 0 1.8.8 1.8 1.8v1.8c0 1-.8 1.8-1.8 1.9zM8.3 1.8c-.1 0-.1 0-.1.1v.8c0 1-.8 1.8-1.8 1.8v1.8h10.9V4.5c-1 0-1.8-.8-1.8-1.8v-.8c0-.1 0-.1-.1-.1H8.3zm13.5 22.7c-4 0-7.3-3.3-7.3-7.3s3.3-7.3 7.3-7.3 7.3 3.3 7.3 7.3-3.3 7.3-7.3 7.3zm0-12.7c-3 0-5.4 2.4-5.4 5.4s2.4 5.4 5.5 5.4 5.4-2.4 5.4-5.5-2.5-5.3-5.5-5.3zm-.6 9c-.2 0-.5-.1-.6-.3l-2.2-2.2c-.4-.4-.4-.9 0-1.3s.9-.4 1.3 0l1.4 1.4 2.6-3.5c.3-.4.9-.5 1.3-.2s.5.9.2 1.3l-3.3 4.4c-.1.3-.4.4-.7.4.1 0 0 0 0 0z" fill="#662484"/></svg>