<svg width="29" height="29" viewBox="0 0 29 29" xmlns="http://www.w3.org/2000/svg"><g fill="#FFF" fill-rule="evenodd"><path d="M20.84 29H2.72A2.73 2.73 0 0 1 0 26.28V6.35c0-1.5 1.22-2.72 2.72-2.72h2.72a.9.9 0 0 1 0 1.8H2.72c-.5 0-.9.42-.9.92v19.93c0 .5.4.9.9.9h18.12c.5 0 .91-.4.91-.9V23.5a.9.9 0 1 1 1.81 0v2.78c0 1.5-1.22 2.72-2.72 2.72zm1.82-17.22a.9.9 0 0 1-.91-.9V6.34c0-.5-.4-.91-.91-.91h-2.71a.9.9 0 1 1 0-1.82h2.71c1.5 0 2.72 1.23 2.72 2.73v4.53c0 .5-.4.9-.9.9zm-5.44-3.62H6.34c-1 0-1.8-.82-1.8-1.82V4.53c0-1 .8-1.81 1.8-1.81V1.9C6.34.85 7.2 0 8.24 0h7.07c1.05 0 1.9.85 1.9 1.9l.01.82c1 0 1.81.81 1.81 1.81v1.82c0 1-.81 1.8-1.8 1.8zM8.25 1.8a.1.1 0 0 0-.1.1v.8c0 1-.8 1.82-1.8 1.82v1.81h10.87v-1.8c-1-.01-1.81-.82-1.81-1.82V1.9a.1.1 0 0 0-.1-.09H8.25zm13.5 22.66a7.26 7.26 0 1 1 .02-14.52 7.26 7.26 0 0 1-.02 14.52zm0-12.69a5.44 5.44 0 1 0 .01 10.89 5.44 5.44 0 0 0-.01-10.89z" fill-rule="nonzero"/><path d="M21.13 19.5c0-.53.07-.94.2-1.25.13-.3.38-.65.76-1.02s.62-.63.72-.78c.16-.24.24-.5.24-.78 0-.37-.1-.65-.27-.84-.19-.2-.45-.29-.8-.29-.34 0-.61.1-.81.29a1 1 0 0 0-.31.77h-1.43c.01-.7.25-1.24.71-1.64a2.7 2.7 0 0 1 1.84-.6c.78 0 1.4.2 1.83.59.44.4.66.95.66 1.67 0 .64-.3 1.26-.89 1.88l-.72.7c-.26.3-.39.73-.4 1.3h-1.33zm-.1 1.81c0-.23.08-.41.22-.56a.8.8 0 0 1 .59-.2.8.8 0 0 1 .59.21c.14.15.21.33.21.55 0 .22-.07.4-.2.54-.15.15-.35.22-.6.22-.26 0-.46-.07-.6-.22a.75.75 0 0 1-.2-.54z"/></g></svg>