<svg xmlns="http://www.w3.org/2000/svg" width="475.08" height="475.08" viewBox="0 0 475.08 475.08"><path d="M469.66 133.33L360.03 23.7a17.58 17.58 0 0 0-12.85-5.43c-2.28 0-4.67.48-7.14 1.43-7.42 3.24-11.14 8.85-11.14 16.84v54.83h-45.68c-20.17 0-38.88 1.04-56.1 3.14-17.22 2.09-32.4 4.99-45.54 8.7-13.13 3.71-24.98 8.33-35.54 13.85-10.57 5.52-19.56 11.37-26.98 17.56a111.32 111.32 0 0 0-19.56 21.13A131.1 131.1 0 0 0 86.08 179c-3.33 7.62-6 16-8 25.13-2 9.14-3.33 17.7-4 25.7-.66 7.99-1 16.65-1 25.97 0 10.66 1.67 22.27 5 34.84 3.34 12.56 7 23.4 11 32.54 4 9.13 8.7 18.6 14.13 28.4 5.42 9.8 9.18 16.32 11.28 19.56 2.09 3.23 4.1 6.19 6 8.85a8.94 8.94 0 0 0 7.41 3.71c.77 0 1.9-.18 3.43-.57 4.38-2.1 6.28-5.32 5.7-9.7-8.55-63.95-1.51-108.97 21.14-135.05 21.89-24.93 63.57-37.4 125.05-37.4h45.68v54.82c0 8 3.71 13.6 11.14 16.85 2.47.95 4.85 1.42 7.13 1.42 5.14 0 9.43-1.8 12.86-5.42l109.63-109.64a17.57 17.57 0 0 0 5.42-12.84c0-4.95-1.8-9.24-5.42-12.85z"/><path d="M396 292.36c-3.63-1.53-6.96-.77-10 2.28a60.18 60.18 0 0 1-15.42 10.56c-3.43 1.9-5.14 4.66-5.14 8.28v61.1c0 12.57-4.46 23.31-13.41 32.26s-19.7 13.42-32.27 13.42H82.22c-12.56 0-23.32-4.47-32.26-13.42-8.95-8.95-13.42-19.7-13.42-32.26V137.04c0-12.56 4.47-23.31 13.42-32.26 8.94-8.95 19.7-13.42 32.26-13.42h31.98c1.14 0 2.66-.38 4.57-1.14 10.66-6.47 23.31-12.19 37.97-17.13 4.95-.95 7.42-4 7.42-9.14 0-2.47-.9-4.61-2.71-6.42a8.79 8.79 0 0 0-6.42-2.71h-72.8c-22.65 0-42.02 8.04-58.1 24.12C8.03 95.03 0 114.4 0 137.04v237.54c0 22.65 8.04 42.02 24.13 58.1 16.08 16.09 35.45 24.13 58.1 24.13h237.54c22.65 0 42.02-8.04 58.1-24.13 16.08-16.08 24.13-35.45 24.13-58.1v-73.94c0-3.81-2-6.57-6-8.28z"/></svg>