<svg xmlns="http://www.w3.org/2000/svg" viewBox="0 0 35.33 34"><g data-name="Слой 2"><path d="M29.77 0H5.56A5.46 5.46 0 0 0 0 5.36v23.29A5.46 5.46 0 0 0 5.56 34h24.21a5.46 5.46 0 0 0 5.56-5.35V5.36A5.46 5.46 0 0 0 29.77 0zm-1.66 11.45c-.32.29-.65.55-1 .81a.35.35 0 0 0-.15.31 11.83 11.83 0 0 1-.49 3.92 13.65 13.65 0 0 1-2 4.11 13.05 13.05 0 0 1-8.24 5.3 14.91 14.91 0 0 1-5.57.07 14.31 14.31 0 0 1-4.08-1.41L6 24.19a10.29 10.29 0 0 0 7-2A4.93 4.93 0 0 1 8.49 19a5.12 5.12 0 0 0 2.1-.07 5.06 5.06 0 0 1-2.71-1.66 4.44 4.44 0 0 1-1-2.92 10.44 10.44 0 0 0 1 .37 9.38 9.38 0 0 0 1.06.18 4.69 4.69 0 0 1-1.46-6.25 14 14 0 0 0 10 4.86c0-.28-.07-.54-.08-.8A4.36 4.36 0 0 1 18.9 9a4.81 4.81 0 0 1 4.23-1.13 4.55 4.55 0 0 1 2.39 1.23.33.33 0 0 0 .35.09 9.85 9.85 0 0 0 2.58-.94l.26-.13a4.09 4.09 0 0 1-.77 1.42 5.37 5.37 0 0 1-1.2 1.08 8.78 8.78 0 0 0 2.62-.62 8.25 8.25 0 0 1-1.25 1.45z" fill="#662484" data-name="Слой 1"/></g></svg>