<svg id="Слой_1" xmlns="http://www.w3.org/2000/svg" viewBox="0 0 1536 1536"><style>.st0{fill:red}</style><path class="st0" d="M706.3 576.7c13.1 12.4 31 19.9 50.8 19.7 19.9-.2 37.5-8.1 50.1-20.9 12.6-12.9 20.1-30.6 20-50.5v-.7c-.4-19.4-8.5-36.8-21.3-49.2-12.8-12.4-30.4-19.9-49.9-19.8H755.2c-19.4.4-37.2 8.7-50.1 21.7-13 13.1-21 30.9-20.6 50 .4 19.7 8.6 37.2 21.8 49.7zM860.3 803.3h-4.5c-16.4.6-31.3 7.8-42.1 18.8-10.8 11.1-17.6 26.1-17.6 42.5v2.4c.6 16.5 7.8 31.3 18.9 42 11.1 10.7 26.3 17.3 42.8 17.3 16.6 0 31.7-6.5 42.8-17 11.2-10.6 18.3-25.4 19-41.9v-2.2c.1-16.6-6.5-31.7-17.2-42.9a60.884 60.884 0 0 0-42.1-19zM460.6 477.8c-12.5-13-30.1-21.7-49.2-22.4h-.7c-19.7-.6-37.7 6.7-50.9 19-13.3 12.3-21.7 29.7-22.3 49.4V524.1c-.5 19.7 6.8 37.4 19.2 50.4 12.4 13 29.8 21.2 49.6 21.8H406.6c19.6.5 37.6-6.8 51-19 13.5-12.3 22.1-29.6 22.9-49v-.7c.5-18.9-7.2-36.6-19.9-49.8z"/><path class="st0" d="M1465.2 70.8C1421.4 27.1 1360.9 0 1294.2 0H241.8C175 0 114.6 27.1 70.8 70.8 27.1 114.6 0 175.1 0 241.8v1052.3c0 66.8 27.1 127.2 70.8 171 43.8 43.8 104.2 70.8 171 70.8h1052.3c66.8 0 127.2-27.1 171-70.8 43.8-43.8 70.8-104.2 70.8-171V241.8c.1-66.7-27-127.2-70.7-171zm-854.1 945.4l1.7 20-20-2.5c-6.8-.8-23.6-3-40.1-5.2-31.6-4.1-61.8-8.1-93.4-10.7-6.8-.6-14.3-.4-21.2.8-5.7 1-10.9 2.5-15 4.8-28.7 16.2-58.3 35-90.4 55.4-11.9 7.6-24.2 15.4-39.5 24.9l-32.9 20.6 8.4-37.9c2.6-11.6 5-23.7 7.4-35.4 5.4-26.1 10.3-50.4 17.4-73.9 2.8-9.2 3.7-15.8 2.1-20.7-1.6-4.9-6.2-9.8-14.5-15.7-75.8-53.5-129.6-120.6-158.5-195-28.8-74.2-32.7-155.5-8.8-238 21.4-73.7 57.9-133.5 106.6-181 51.8-50.5 117.2-87.1 192.7-111.7 99.8-32.6 205.8-32.3 302-4.1 96.8 28.4 183.8 84.9 244.9 164.7 22.1 28.9 40 59.6 53.3 92.8 13.3 33.1 21.9 68.7 25.5 107.2l1.6 16.9-17 .9c-58.9 3.1-114 13.5-164.5 33.2-50.3 19.6-96.3 48.4-137.4 88.4-41.5 40.2-71.7 85-90.2 134.8-18.5 49.8-25.4 105.1-20.2 166.4zm793.1-23.7c-6 72.2-39.5 141.8-100.5 195.9-20.9 18.5-35.2 35.8-41.2 55.6-5.4 17.8-4.1 36.3 5.3 57.5-26.9-14.2-53.1-28-82.1-31-25.1-2.6-49.2 4.3-73.5 11.3-15.4 4.4-31 8.9-45.6 10.4-57.7 5.9-112.4.8-163.1-15.8-49.9-16.3-96.2-43.6-138-82.3-22.4-20.7-41.2-43-56.6-66.5-38.6-59-54.5-124.5-48.7-188.3 5.9-63.9 33.6-126.4 82.2-178.9 20-21.6 43.7-41.7 71.1-59.6 82.6-54.1 184.6-72.1 280.6-57.8 95.8 14.3 185.4 60.7 243.3 135.4 50.7 65.1 72.9 141 66.8 214.1z"/><path class="st0" d="M1141.7 803.4H1139.8c-16.3-.1-31.3 6.4-42.3 17.1-11 10.6-18.2 25.4-18.9 41.8v2.4c0 16.5 6.3 31.4 16.8 42.4 10.5 11.1 25.1 18.1 41.5 18.8h2.4c16.6.1 31.6-6.3 42.6-16.8s17.9-25.2 18.5-41.8v-1.9c.1-16.6-6.3-31.8-16.7-42.9-10.7-11.3-25.5-18.5-42-19.1z"/></svg>