<svg xmlns="http://www.w3.org/2000/svg" viewBox="0 0 805.4 135.3"><g fill="#a77db5"><path d="M279.7 16.4h-14.6c-4.4 0-8.1 3.1-8.8 7.4l-6.7 39.6a9 9 0 0 0 8.8 10.4h12.2c13.6 0 25.9-10.4 28-23.6l1.5-9.6c1-6.5-.6-12.5-4.5-17.1-3.9-4.6-9.5-7.1-15.9-7.1zM267 29.9c.2-1 1.1-1.8 2.1-1.8h9.2c3.2 0 6 1.2 7.9 3.4 1.9 2.3 2.7 5.3 2.2 8.5l-1.5 9.6c-1.1 7-7.7 12.5-15 12.5H264c-.6 0-1.2-.3-1.6-.8-.4-.5-.6-1.1-.5-1.7l5.1-29.7zM700.2 16.5c-2.9 0-5.3 2.1-5.7 4.9l-7.1 45.8c-.3 1.7.2 3.4 1.3 4.6 1.1 1.3 2.7 2 4.4 2 2.9 0 5.3-2.1 5.7-4.9l7.1-45.8c.3-1.7-.2-3.4-1.3-4.6a5.7 5.7 0 0 0-4.4-2zM674.4 16.5c-2.9 0-5.3 2.1-5.7 4.9l-2.6 17h-20.2l2.4-15.2c.3-1.7-.2-3.4-1.3-4.6a5.7 5.7 0 0 0-4.4-2c-2.9 0-5.3 2.1-5.7 4.9l-7.1 45.8c-.3 1.7.2 3.4 1.3 4.6 1.1 1.3 2.7 2 4.4 2 2.9 0 5.3-2.1 5.7-4.9l3.1-20.2h20.2l-2.9 18.4c-.3 1.7.2 3.4 1.3 4.6 1.1 1.3 2.7 2 4.4 2 2.9 0 5.3-2.1 5.7-4.9l7.1-45.8c.3-1.7-.2-3.4-1.3-4.6a5.7 5.7 0 0 0-4.4-2zM377.7 26.8h19c2.6 0 4.7-1.8 5.1-4.4.2-1.5-.2-3-1.2-4.2-1-1.2-2.4-1.8-3.9-1.8h-23.8c-3.8 0-7 2.7-7.6 6.5l-6.5 42a7.79 7.79 0 0 0 7.6 8.9h23.1c2.6 0 4.7-1.8 5.1-4.4.2-1.5-.2-3-1.2-4.2-1-1.2-2.4-1.8-3.9-1.8h-16.9c-.5 0-.9-.2-1.2-.5-.3-.3-.4-.8-.4-1.2l2-13h12c2.6 0 4.7-1.8 5.1-4.4.2-1.5-.2-3-1.2-4.2-1-1.2-2.4-1.8-3.9-1.8h-10.4l1.6-10.2c.1-.7.7-1.3 1.5-1.3zM804.2 18.2c-1-1.2-2.4-1.8-3.9-1.8h-23.8c-3.8 0-7 2.7-7.6 6.5l-6.5 42a7.79 7.79 0 0 0 7.6 8.9h23c2.6 0 4.7-1.8 5.1-4.4.2-1.5-.2-3-1.2-4.2-1-1.2-2.4-1.8-3.9-1.8h-17c-.5 0-.9-.2-1.2-.5-.3-.3-.4-.8-.4-1.2l2-13h12c2.6 0 4.7-1.8 5.1-4.4.2-1.5-.2-3-1.2-4.2-1-1.2-2.4-1.8-3.9-1.8H778l1.6-10.2c.1-.8.8-1.3 1.5-1.3h19c2.6 0 4.7-1.8 5.1-4.4.4-1.5 0-3-1-4.2zM337.1 16.4h-21c-2.6 0-4.8 1.9-5.2 4.4l-7.3 46.9c-.2 1.5.2 3 1.2 4.2 1 1.2 2.4 1.8 4 1.8h1.1c2.6 0 4.8-1.9 5.2-4.4l1.6-10.1H328l8.5 12.1c1.1 1.5 2.9 2.5 4.8 2.5h.3c2.2 0 4.2-1.2 5.2-3.1 1-1.9.9-4.2-.4-6l-5.4-7.8c7.2-3.5 12.4-10.4 13.6-18l.2-1.6c.9-5.6-.5-10.8-3.9-14.8a18 18 0 0 0-13.8-6.1zm6.1 20.4l-.2 1.6c-.8 5.1-5.5 9.2-10.6 9.2h-13.7l3-19.5h14.2c2.3 0 4.4.9 5.7 2.5 1.4 1.6 1.9 3.9 1.6 6.2zM442.3 20.3c-.6-2.3-2.7-3.9-5-3.9h-5.5c-1.9 0-3.6 1-4.5 2.6l-26.4 45.9c-1.1 1.9-1.1 4.1 0 5.9s3 3 5.1 3c2.1 0 4.1-1.1 5.1-2.9l3.8-6.5h26.8l1.4 5.1c.7 2.5 3 4.3 5.6 4.3 1.8 0 3.5-.8 4.6-2.3 1.1-1.4 1.5-3.3 1-5.1l-12-46.1zM438.9 54h-18l12.3-21.1 5.7 21.1zM564.7 18.9c-.4-1.5-1.7-2.5-3.3-2.5h-7.8c-1.2 0-2.3.6-2.9 1.7l-26.9 46.8a5.69 5.69 0 0 0 0 5.9c1.1 1.9 3 3 5.1 3 2.1 0 4.1-1.1 5.1-2.9l3.8-6.5h26.8l1.4 5.1c.7 2.5 3 4.3 5.6 4.3 1.8 0 3.5-.8 4.6-2.3 1.1-1.4 1.5-3.3 1-5.1l-12.5-47.5zM561.8 54h-18L556 32.9l5.8 21.1zM753.3 16.5c-2.9 0-5.3 2.1-5.7 4.9l-4.7 30.2-13.4-32.3c-.7-1.7-2.4-2.8-4.3-2.8h-4.5c-2.3 0-4.2 1.6-4.5 3.9l-7.3 46.8c-.3 1.7.2 3.4 1.3 4.6 1.1 1.3 2.7 2 4.4 2 2.9 0 5.3-2.1 5.7-4.9l4.7-30.5 13.5 32.2c.8 1.9 2.7 3.2 4.8 3.2h3.3c2.6 0 4.8-1.9 5.2-4.4l7.2-46.3c.3-1.7-.2-3.4-1.3-4.6a5.7 5.7 0 0 0-4.4-2zM523.3 17.7c-.6-.7-1.6-1.2-2.5-1.2h-5.3c-1.2 0-2.2.6-2.8 1.5l-20.8 31.2L481 18.7c-.5-1.3-1.8-2.2-3.2-2.2h-6.3c-1.7 0-3.1 1.2-3.3 2.9l-7.4 47.8c-.3 1.7.2 3.4 1.3 4.6 1.1 1.3 2.7 2 4.4 2 2.9 0 5.3-2.1 5.7-4.9l4.4-28.2 6.5 18.1a4 4 0 0 0 3.8 2.6h6.1a4 4 0 0 0 3.3-1.8l13.1-19.4-4.2 26.9c-.3 1.7.2 3.4 1.3 4.6 1.1 1.3 2.7 2 4.4 2 2.9 0 5.3-2.1 5.7-4.9l7.5-48.5c.1-.9-.2-1.9-.8-2.6zM619.4 16.5h-6.7c-13.6 0-25.9 10.4-28 23.6l-1.5 9.6c-1 6.5.6 12.5 4.5 17.1 3.9 4.5 9.5 7 15.9 7H614c2.9 0 5.3-2.1 5.8-4.9a5.72 5.72 0 0 0-5.7-6.7H605c-3.2 0-6-1.2-7.9-3.4-1.9-2.3-2.7-5.3-2.2-8.5l1.5-9.6c1.1-7 7.7-12.5 15-12.5h8c2.9 0 5.3-2.1 5.8-4.9.3-1.7-.2-3.4-1.3-4.7a5.83 5.83 0 0 0-4.5-2.1z"/></g><g fill="#575756"><path d="M259.6 89.9c6.1 0 8.9 3.9 8.1 9.1-.8 5.1-4.3 8.8-10.7 8.8h-6.4l2.8-17.9h6.2zm-.3 2.7h-3.4l-2 12.6h3.3c4.2 0 6.9-2.4 7.5-6.5.6-4-1.2-6.1-5.4-6.1zM276.3 95.2c4.8 0 6.1 4 4.8 7.6h-9.3c0 2.3 2.1 3.1 4.1 3.1 1.6 0 3.1-.4 4.2-.9l-.4 2.5c-1.1.5-2.6.8-4.4.8-3.5 0-6.8-2.3-6.1-6.6.7-4.5 4.2-6.5 7.1-6.5zm0 2.3c-1.9 0-3.7 1.2-4.2 3.2h6.8c.4-1.2 0-3.2-2.6-3.2zM290.9 95.2c1.4 0 2.7.4 3.8 1.1l-.4 2.4c-.9-.7-2-1-3.2-1-2.3 0-4.7 1.1-5.2 4.1-.4 2.8 1.4 4 3.7 4 1.4 0 2.7-.4 3.8-1l-.4 2.6c-1.3.6-2.6.8-4.1.8-3.4 0-6.5-2.1-5.8-6.7.8-4.6 4.6-6.3 7.8-6.3zM302.9 95.2c4.8 0 6.1 4 4.8 7.6h-9.3c0 2.3 2.1 3.1 4.1 3.1 1.6 0 3.1-.4 4.2-.9l-.4 2.5c-1.1.5-2.6.8-4.4.8-3.5 0-6.8-2.3-6.1-6.6.6-4.5 4.1-6.5 7.1-6.5zm-.1 2.3c-1.9 0-3.7 1.2-4.2 3.2h6.8c.4-1.2.1-3.2-2.6-3.2zM318.3 95.2c3 0 4.6 2.2 4.2 5.1l-1.2 7.5h-2.7l1.2-7.3c.3-2-.7-2.9-2.3-2.9-1.5 0-3 1.1-3.9 2.1l-1.3 8.1h-2.7l1.9-12.3h2.4l-.3 1.8c1.2-1.2 2.9-2.1 4.7-2.1zM330.6 91.1l-.7 4.4h4.5l-.4 2.4h-4.5l-.9 5.7c-.3 1.6.4 2.1 1.9 2.1.9 0 1.8-.2 2.6-.6l-.4 2.4c-.9.4-2 .6-3.2.6-2.3 0-4.1-1.3-3.7-4.1l1-6.1h-2.2l.4-2.4h2.2l.6-3.7 2.8-.7zM344.5 95.3l-.4 2.7c-2.2-.4-4.3.6-5.2 2.4l-1.2 7.4H335l1.9-12.3h2.4l-.3 2c1.1-1.5 2.8-2.5 5.5-2.2zM349.7 108.2c-3.7 0-5.7-3-5.2-6.7.6-3.5 3.3-6.3 7-6.3 2.3 0 3.7 1.2 4.5 2.4l.3-2.1h2.5l-1.9 12.3h-2.5l.3-2a6.35 6.35 0 0 1-5 2.4zm.7-2.5c2 0 3.6-1.3 4.4-2.6l.5-3c-.3-1.3-1.5-2.5-3.4-2.5-2.3 0-4.2 1.6-4.6 4.1-.4 2.3.9 4 3.1 4zM366 89.1l-3 18.7h-2.7l3-18.7h2.7zM366.5 107.8l1.9-12.3h2.7l-1.9 12.3h-2.7zm3.9-14.6c-1 0-1.7-.6-1.5-1.8.2-1 .9-1.5 1.8-1.5s1.7.6 1.5 1.8c-.2 1-1 1.5-1.8 1.5zM383.9 95.5l-.3 2-7.8 7.9h6.9l-.4 2.3h-10.4l.3-2 7.8-7.9h-6.2l.4-2.3h9.7zM391.9 95.2c4.8 0 6.1 4 4.8 7.6h-9.3c0 2.3 2.1 3.1 4.1 3.1 1.6 0 3.1-.4 4.2-.9l-.4 2.5c-1.1.5-2.6.8-4.4.8-3.5 0-6.8-2.3-6.1-6.6.7-4.5 4.2-6.5 7.1-6.5zm0 2.3c-1.9 0-3.7 1.2-4.2 3.2h6.8c.4-1.2.1-3.2-2.6-3.2zM413.9 89.9l-2.8 17.9h-2.4l.3-2a5.8 5.8 0 0 1-5 2.4c-3.7 0-5.7-3-5.2-6.7.6-3.5 3.3-6.3 6.9-6.3 2.2 0 3.6 1 4.3 2.1l1.2-7.4h2.7zm-7.8 7.7c-2.3 0-4.2 1.6-4.6 4.1-.4 2.3.9 4 3.1 4 2 0 3.6-1.3 4.4-2.6l.5-3c-.3-1.3-1.5-2.5-3.4-2.5zM425.3 107.8l-4.4-17.9h3l3.3 14.5 7.9-14.5h3.3l-10.1 17.9h-3zM441.5 108.2c-3.4 0-6.4-2.4-5.7-6.7.7-4.2 4.2-6.3 7.6-6.3 3.4 0 6.4 2.4 5.7 6.7-.7 4.2-4.3 6.3-7.6 6.3zm.2-2.6c2.3 0 4.2-1.6 4.6-4.1.4-2.3-.9-3.9-3.2-3.9-2.3 0-4.2 1.6-4.6 4.1-.4 2.4.9 3.9 3.2 3.9zM456.5 89.1l-3 18.7h-2.7l3-18.7h2.7zM470.5 95.5l-1.9 12.3h-2.4l.3-1.8c-1 1.2-2.7 2.1-4.5 2.1-3.1 0-4.8-2.2-4.4-5.1l1.2-7.5h2.7l-1.2 7.3c-.3 2 .6 2.9 2.3 2.9 1.7 0 3-1 3.9-2.1l1.3-8.1h2.7zM480.8 95.2c3 0 4.6 2.2 4.2 5.1l-1.2 7.5H481l1.2-7.3c.3-2-.7-2.9-2.3-2.9-1.5 0-3 1.1-3.9 2.1l-1.3 8.1H472l1.9-12.3h2.4l-.3 1.8c1.3-1.2 3-2.1 4.8-2.1zM493 91.1l-.7 4.4h4.5l-.4 2.4H492l-.9 5.7c-.3 1.6.4 2.1 1.9 2.1.9 0 1.8-.2 2.6-.6l-.4 2.4c-.9.4-2 .6-3.2.6-2.3 0-4.1-1.3-3.7-4.1l1-6.1H487l.4-2.4h2.2l.6-3.7 2.8-.7zM504.7 95.2c4.8 0 6.1 4 4.8 7.6h-9.3c0 2.3 2.1 3.1 4.1 3.1 1.6 0 3.1-.4 4.2-.9l-.4 2.5c-1.1.5-2.6.8-4.4.8-3.5 0-6.8-2.3-6.1-6.6.7-4.5 4.2-6.5 7.1-6.5zm0 2.3c-1.9 0-3.7 1.2-4.2 3.2h6.8c.4-1.2 0-3.2-2.6-3.2zM518.6 95.2c4.8 0 6.1 4 4.8 7.6h-9.3c0 2.3 2.1 3.1 4.1 3.1 1.6 0 3.1-.4 4.2-.9l-.4 2.5c-1.1.5-2.6.8-4.4.8-3.5 0-6.8-2.3-6.1-6.6.7-4.5 4.2-6.5 7.1-6.5zm0 2.3c-1.9 0-3.7 1.2-4.2 3.2h6.8c.4-1.2.1-3.2-2.6-3.2zM534.9 95.3l-.4 2.7c-2.2-.4-4.3.6-5.2 2.4l-1.2 7.4h-2.7l1.9-12.3h2.4l-.3 2c1-1.5 2.8-2.5 5.5-2.2zM552.2 89.6c1.9 0 3.5.4 4.9 1.3l-.4 2.7c-1-.8-2.5-1.3-4.1-1.3-3.5 0-7.5 2-8.2 6.5-.8 4.7 2.7 6.7 5.9 6.7 1.8 0 3.5-.5 4.9-1.4l-.5 3c-1.5.7-3.4 1-5.1 1-4.4 0-9.2-3.2-8.1-9.7.8-5.8 6.2-8.8 10.7-8.8zM562.2 108.2c-3.7 0-5.7-3-5.2-6.7.6-3.5 3.3-6.3 7-6.3 2.3 0 3.7 1.2 4.5 2.4l.3-2.1h2.5l-1.9 12.3h-2.5l.3-2a6.68 6.68 0 0 1-5 2.4zm.6-2.5c2 0 3.6-1.3 4.4-2.6l.5-3c-.3-1.3-1.5-2.5-3.4-2.5-2.3 0-4.2 1.6-4.6 4.1-.4 2.3.9 4 3.1 4zM589.2 95.2c3.2 0 4.4 2.5 4 5l-1.2 7.6h-2.7l1.2-7.7c.2-1.6-.5-2.5-2-2.5s-2.7 1-3.4 1.8c0 .3 0 .6-.1.8l-1.2 7.6h-2.7l1.2-7.7c.2-1.6-.5-2.5-2-2.5-1.6 0-2.9 1.2-3.6 2l-1.3 8.2h-2.7l1.9-12.3h2.4l-.3 1.6c.8-.9 2.5-1.9 4.4-1.9 1.8 0 2.9.8 3.5 1.9 1.3-1 2.8-1.9 4.6-1.9zM604.2 95.2c3.7 0 5.7 3 5.1 6.7-.5 3.5-3.3 6.3-6.9 6.3-2.2 0-3.5-1-4.2-2.2l-1.2 7.5h-2.7l2.8-17.9h2.4l-.3 2c1.2-1.4 2.9-2.4 5-2.4zm-.6 2.4c-2 0-3.6 1.3-4.5 2.7l-.5 3a3.5 3.5 0 0 0 3.4 2.5c2.3 0 4.2-1.6 4.6-4.1.5-2.4-.8-4.1-3-4.1zM616.5 108.2c-3.7 0-5.7-3-5.2-6.7.6-3.5 3.3-6.3 7-6.3 2.3 0 3.7 1.2 4.5 2.4l.3-2.1h2.5l-1.9 12.3h-2.5l.3-2a6.68 6.68 0 0 1-5 2.4zm.6-2.5c2 0 3.6-1.3 4.4-2.6l.5-3c-.3-1.3-1.5-2.5-3.4-2.5-2.3 0-4.2 1.6-4.6 4.1-.4 2.3.9 4 3.1 4zM627 107.8l1.9-12.3h2.7l-1.9 12.3H627zm3.8-14.6c-1 0-1.7-.6-1.5-1.8.2-1 .9-1.5 1.8-1.5s1.7.6 1.5 1.8c-.2 1-.9 1.5-1.8 1.5zM638.2 113.8c-2.2 0-3.9-.5-5.2-1.3l.4-2.4c1.2.8 2.7 1.3 4.6 1.3 2.4 0 4.6-1 5-3.7l.3-1.5c-.9 1-2.4 2-4.6 2-3.7 0-5.7-3-5.2-6.7.6-3.5 3.4-6.3 7-6.3 2.3 0 3.6 1 4.4 2.4l.4-2.1h2.5l-1.9 12.2c-.8 4.4-4.2 6.1-7.7 6.1zm1-8.1c2 0 3.6-1.2 4.4-2.5l.5-3.1a3.5 3.5 0 0 0-3.4-2.5c-2.3 0-4.2 1.6-4.6 4.1-.3 2.3 1 4 3.1 4zM657.9 95.2c3 0 4.6 2.2 4.2 5.1l-1.2 7.5h-2.7l1.2-7.3c.3-2-.7-2.9-2.3-2.9-1.5 0-3 1.1-3.9 2.1l-1.3 8.1h-2.7l1.9-12.3h2.4l-.3 1.8c1.2-1.2 2.9-2.1 4.7-2.1zM670.3 95.2c1.7 0 3.3.5 4.4 1.1l-.4 2.4c-1-.7-2.5-1.2-4-1.2-1.3 0-2.5.4-2.6 1.4-.3 2.3 7.3 1.4 6.6 5.9-.4 2.7-3.1 3.5-5.7 3.5-1.9 0-3.6-.5-4.7-1.2l.4-2.4c1.2.9 2.8 1.4 4.4 1.4 1.5 0 2.7-.3 2.9-1.3.3-2.3-7.2-1.4-6.6-5.9.3-2.9 3-3.7 5.3-3.7z"/></g><path d="M210.6 89.1c-3.8 0-7.2-1.4-9.8-3.8-2.9-2.6-4.7-6.5-4.7-10.7V59.3c0-4.3 1.9-8.2 4.9-10.8 2.6-2.3 5.9-3.6 9.6-3.6 4.2 0 8 1.4 11 3.9 4.1 3.3 6.7 8.3 6.7 13.9v8.8c0 5.2-2.2 9.8-5.7 13-3.1 2.8-7.3 4.6-12 4.6z" fill="#e6d7ea"/><path d="M210.6 91.3c-9.2 0-16.7-7.5-16.7-16.7V59.3c0-9.2 7.5-16.7 16.7-16.7 11 0 19.9 8.9 19.9 19.9v8.8c0 11-8.9 20-19.9 20zm0-44.3c-6.8 0-12.3 5.5-12.3 12.3v15.3c0 6.8 5.5 12.3 12.3 12.3 8.6 0 15.6-7 15.6-15.6v-8.8c0-8.6-7-15.5-15.6-15.5z" fill="#a77db5"/><path d="M160.4 122.4c-20.2-5.9-37.5 10-37.5 10s-22.4-16.3-45-10.5C26 135.2 22 96.8 22 63.1v-6.8C22 26.4 46.3 2.1 76.2 2.1h88.2c28.3 0 51.3 23 51.3 51.3v9.7c-.1 33.7 1 75.8-55.3 59.3z" fill="#e6d7ea"/><path d="M123 135.3l-1.4-1.1c-.2-.2-21.8-15.7-43.2-10.2-18.6 4.8-32.4 3.4-42.1-4.1C21.7 108.7 19.7 86 19.7 63.2v-6.8C19.7 25.3 45 0 76.1 0h88.2c29.5 0 53.5 24 53.5 53.5V65c0 21.6 0 46.1-14.9 57.3-9.5 7.2-23.7 7.9-43.2 2.2-18.8-5.5-35.3 9.4-35.4 9.6l-1.3 1.2zm-34.9-16.8c16.1 0 30.2 8.3 34.6 11.2 4.6-3.7 20.2-14.7 38.3-9.4 18.1 5.3 30.9 4.8 39.3-1.5 13.2-9.9 13.2-33.3 13.2-53.9V53.4c0-27.1-22-49.1-49.1-49.1H76.1c-28.7 0-52 23.3-52 52v6.8c0 21.8 1.8 43.3 14.8 53.4 8.5 6.6 21.4 7.7 38.4 3.3 3.6-.9 7.2-1.3 10.8-1.3z" fill="#a77db5"/><path d="M213.7 68c-.1-.2-2.6-4.4-7.2-4.4-1.7 0-13.7-.1-30.8-.2-48.5-.3-138.7-.7-144.2-.6-5.8.2-7.1 2.4-7.1 2.4l-4-1.8c.2-.5 2.3-4.6 10.9-4.9 5.6-.2 95.9.3 144.3.6 17.1.1 29.1.2 30.8.2 7.1 0 10.8 6.4 11 6.7l-3.7 2z" fill="#a77db5"/><path d="M74.6 123.2l-1-1c.1-.1 10.4-10 13.1-14.2 5-7.8 4.3-22.4 4.3-22.5 0-.7.5-66.1-2.2-73-2.8-7.2-9.1-9.6-9.2-9.6l.5-1.4c.3.1 7 2.6 10 10.5 2.8 7.2 2.3 70.8 2.3 73.5 0 .6.7 15.2-4.5 23.3-2.7 4.2-12.8 14-13.3 14.4zM161.1 123.2l-1-1c.1-.1 10.4-10 13.1-14.2 5-7.8 4.3-22.4 4.3-22.5 0-.7.5-66.1-2.2-73-2.8-7.2-9.1-9.6-9.2-9.6l.5-1.4c.3.1 7 2.6 10 10.5 2.8 7.2 2.3 70.8 2.3 73.5 0 .6.7 15.2-4.5 23.3-2.8 4.2-12.9 14-13.3 14.4z" fill="#a77db5"/><path d="M176.3 91.1H84.7a26.12 26.12 0 0 1-26-26.1V47.8c0-6.6 2.5-12.7 6.5-17.3a26.1 26.1 0 0 1 19.5-8.8h91.6a25.98 25.98 0 0 1 26 26.1V65c0 7.6-3.3 14.4-8.4 19.2-4.6 4.3-10.8 6.9-17.6 6.9z" fill="#7c5090"/><path d="M176.3 93.2H84.7c-15.6 0-28.2-12.7-28.2-28.2V47.8c0-15.6 12.7-28.2 28.2-28.2h91.6c15.6 0 28.2 12.7 28.2 28.2V65a28.1 28.1 0 0 1-28.2 28.2zM84.7 23.9a23.9 23.9 0 0 0-23.9 23.9V65a23.9 23.9 0 0 0 23.9 23.9h91.6A23.9 23.9 0 0 0 200.2 65V47.8a23.9 23.9 0 0 0-23.9-23.9H84.7z" fill="#a77db5"/><path d="M168.2 91.1H84.7a26.12 26.12 0 0 1-26-26.1V47.8a26 26 0 0 1 9.5-20.1c4.5-3.7 10.3-6 16.6-6h83.5c7.9 0 15 3.5 19.8 9.1 3.9 4.6 6.2 10.5 6.2 16.9V65c0 7.2-2.9 13.7-7.6 18.4-4.7 4.7-11.3 7.7-18.5 7.7z" fill="#fff"/><path d="M168.2 92.5H84.7c-15.2 0-27.5-12.3-27.5-27.5V47.8c0-15.2 12.3-27.5 27.5-27.5h83.5c15.2 0 27.5 12.3 27.5 27.5V65c.1 15.2-12.3 27.5-27.5 27.5zM84.7 23.2c-13.6 0-24.6 11-24.6 24.6V65c0 13.6 11 24.6 24.6 24.6h83.5c13.6 0 24.6-11 24.6-24.6V47.8c0-13.6-11-24.6-24.6-24.6H84.7zM228.2 77.1c-.1-2.6-.9-4.7-2.6-6.2-3.6-3.4-9.9-3.2-9.9-3.2l-.1-1.5c.3 0 6.9-.2 11 3.6 2 1.8 3 4.3 3.1 7.2l-1.5.1z" fill="#a77db5"/><path d="M138.4 76.2h-5.9c-3.9 0-7.4-1.6-10-4.1-2.6-2.6-4.1-6.1-4.1-10h34.1c0 3.7-1.4 7-3.7 9.5-2.6 2.9-6.3 4.6-10.4 4.6z" fill="#7c5090"/><path d="M102.1 58.7l-5.9 3.1c-1.1.6-2.4-.4-2.2-1.6l1.1-6.5c.1-.5-.1-1-.4-1.3L90 47.7c-.9-.9-.4-2.4.8-2.6l6.6-1c.5-.1.9-.4 1.1-.8l2.9-5.9c.6-1.1 2.2-1.1 2.7 0l2.9 5.9c.2.4.6.8 1.1.8l6.6 1c1.2.2 1.7 1.7.8 2.6l-4.7 4.6c-.4.3-.5.8-.4 1.3l1.1 6.5c.2 1.2-1.1 2.2-2.2 1.6l-5.9-3.1c-.3-.1-.9-.1-1.3.1zM164.2 58.7l-5.9 3.1c-1.1.6-2.4-.4-2.2-1.6l1.1-6.5c.1-.5-.1-1-.4-1.3l-4.7-4.6c-.9-.9-.4-2.4.8-2.6l6.6-1c.5-.1.9-.4 1.1-.8l2.9-5.9c.6-1.1 2.2-1.1 2.7 0l2.9 5.9c.2.4.6.8 1.1.8l6.6 1c1.2.2 1.7 1.7.8 2.6l-4.7 4.6c-.4.3-.5.8-.4 1.3l1.1 6.5c.2 1.2-1.1 2.2-2.2 1.6l-5.9-3.1c-.3-.2-.8-.2-1.3 0z" fill="#f8b133"/><path d="M104.8 118.3c-4.5-1.9-10.2-3.1-14.3-3.2-4.1-.1-18.8-1.5-26.4-4.7C52 105.3 49 96.9 47.2 82.3c-.8-6.5-3.6-46.4 0-57.3C50.9 14.2 64.8 5.4 64.8 5.4s-14.2 3-24.7 13.4a59.5 59.5 0 0 0-8.2 10.1 51.2 51.2 0 0 0-6.1 13.7c-3.2 12-2.8 25.7-1.1 40.4 1.8 15.5 5.3 23.9 9.9 29.4 2.2 2.6 4.6 4.8 7.7 6.4 2.8 1.4 5.2 2.4 8.7 3 5.3 1 9.9.7 13.8.3 6.2-.6 9.8-1.7 14.2-2.7 1.7-.4 4.1-.8 7-.9 1.6-.1 3.3 0 5.1.1 5.1.1 13.2 2.3 17.4 4 1.6.6 4.6 1.8 7.3 3.2 3.6 1.9 6.8 3.9 6.8 3.9s-8.8-7.7-17.8-11.4z" opacity=".39" fill="#a77db5"/><path d="M24.1 89.1A17.7 17.7 0 0 1 6.4 71.3v-8.8c0-6.1 3.1-11.5 7.8-14.7 2.8-1.9 6.3-3.1 10-3.1 3.6 0 6.8 1.3 9.3 3.4 3.2 2.7 5.2 6.6 5.2 11.1v15.3a14.62 14.62 0 0 1-14.6 14.6z" fill="#e6d7ea"/><path d="M24.1 91.3c-11 0-19.9-8.9-19.9-19.9v-8.8c0-11 8.9-19.9 19.9-19.9 9.2 0 16.7 7.5 16.7 16.7v15.3c0 9.1-7.5 16.6-16.7 16.6zm0-44.3c-8.6 0-15.6 7-15.6 15.6v8.8c0 8.6 7 15.6 15.6 15.6 6.8 0 12.3-5.5 12.3-12.3V59.3c0-6.8-5.5-12.3-12.3-12.3z" fill="#a77db5"/><path d="M6.2 74.4c-.2-2.7.5-5 2.1-6.8 3.4-3.8 9.4-4.1 9.6-4.1h9.5c4.3 0 12.4 1.9 12.4 9.3h-1.5c0-7.8-10.9-7.9-11-7.9h-9.4s-5.6.3-8.6 3.6a7.84 7.84 0 0 0-1.8 5.7l-1.3.2z" fill="#a77db5"/><path d="M18.1 64.9L11.3 25a7.7 7.7 0 0 0 5.5-8.9 7.78 7.78 0 1 0-9.3 9.1L5.6 65.7c-.2 3.7 3 6.8 6.7 6.6a6.4 6.4 0 0 0 5.8-7.4z" fill="#7c5090"/><path d="M11.9 73.7a7.73 7.73 0 0 1-7.7-8.1L6 26.2c-3.6-1.3-6-4.7-6-8.6 0-2.8 1.2-5.4 3.4-7.2 2.2-1.8 5-2.4 7.8-1.8A9.2 9.2 0 0 1 13 26l6.6 38.7c.4 2.2-.2 4.4-1.6 6.1s-3.4 2.8-5.6 2.9h-.5zM9.2 11.3a6.21 6.21 0 0 0-6.3 6.3c0 3 2 5.5 4.9 6.2L9 24 7.1 65.8c-.1 1.4.5 2.7 1.4 3.7 1 1 2.3 1.5 3.7 1.4a4.83 4.83 0 0 0 4.5-5.6L9.7 24l1.3-.4c3.1-.9 5.1-4 4.5-7.2-.5-2.5-2.4-4.4-4.8-5-.6-.1-1-.1-1.5-.1z" fill="#a77db5"/><g><path d="M11.3 25a7.7 7.7 0 0 0 5.5-8.9 7.78 7.78 0 1 0-9.3 9.1L5.6 65.7c-.2 3.7 6.2 4.4 6.2.7 0-13.2-.5-41.4-.5-41.4z" fill="#e6d7ea"/><path d="M9.1 70.3c-1 0-2-.3-2.8-.8-1.4-.9-2.2-2.3-2.1-3.9L6 26.2c-3.6-1.3-6-4.7-6-8.6 0-2.8 1.2-5.4 3.4-7.2 2.2-1.8 5-2.4 7.8-1.8 3.6.8 6.4 3.7 7.1 7.3.8 4.3-1.5 8.5-5.5 10.2.1 5.2.4 28.7.5 40.3 0 1.5-.7 2.7-1.9 3.4-.7.4-1.5.5-2.3.5zm.1-59a6.21 6.21 0 0 0-6.3 6.3c0 3 2 5.5 4.9 6.2L9 24 7.1 65.8c0 .6.2 1 .7 1.3.7.4 1.6.5 2.2.2.2-.1.4-.3.4-.8-.1-13-.5-41.1-.5-41.4V24l1.1-.3c3.1-.9 5.1-4 4.5-7.2-.5-2.5-2.4-4.4-4.8-5-.6-.2-1-.2-1.5-.2z" fill="#a77db5"/></g><g><path d="M12.4 20.8c-.2 0-.3-.1-.5-.2-.3-.3-.4-.7-.1-1 .9-1.1 1-3.3.5-4.1-.8-1.4-1.8-2-3.2-2-.4 0-.7-.3-.7-.7 0-.4.3-.7.7-.7 1.3 0 3.2.5 4.5 2.8.7 1.3.6 4.1-.7 5.7 0 .1-.2.2-.5.2z" fill="#a77db5"/></g><path d="M80.3 23.6s-4.8 4.3-8.7 11.1c-8.7 15.2-4.3 37.1-2.6 42.8.8 2.8 3.9 7.2 7.1 8.9 5.9 3 13.9 3.3 13.9 3.3s-4.4 0-7.4-.1c-1.8-.1-3.3-.3-5-.9-2.2-.7-3.9-1.5-5.8-2.7-1.3-.8-2.3-1.6-3.1-2.3-2-1.7-3.4-3.3-4.8-5.6-.7-1.2-1.6-2.9-2.2-4.4-.5-1.2-.9-2.7-1.3-4.7-.3-2-.3-5.7-.3-8 0-4.2.1-8.5 0-11.8 0-1.2 0-2.5.1-3.5.2-2 .3-2.3.4-3 .2-1.2.3-1.9 1.4-4.5 1.1-2.7 3.2-6.1 5.9-8.5 6.7-5.7 12.4-6.1 12.4-6.1zM19.2 47.7s9.5-1.1 10.7 6c1.1 6.8.6 21.6-.8 24.8-3.4 8-9.9 7.6-9.9 7.6S26.9 88.9 32 84c5.1-4.8 4.4-9.1 4.4-9.1V57s-.4-2-1.5-3.9c-.5-.9-1.4-1.7-2-2.6-4.6-5.7-13.7-2.8-13.7-2.8zM217.6 48.6l-.2 36.7s4.6-2.7 5.8-4.5c1.2-1.8-2.4-9.6-3.4-13.4s-2.2-18.8-2.2-18.8z" opacity=".39" fill="#a77db5"/></svg>