<svg xmlns="http://www.w3.org/2000/svg" viewBox="0 0 287.39 346.88"><defs><style>.cls-2{fill:#e6d7ea}.cls-3,.cls-8{fill:#a77db5}.cls-4{fill:#7c5090}.cls-7{fill:#f8b133}.cls-8{opacity:.39;mix-blend-mode:multiply}.cls-9{fill:none;stroke:#a77db5;stroke-miterlimit:10;stroke-width:4px}</style></defs><g style="isolation:isolate"><g id="Слой_2" data-name="Слой 2"><g id="Слой_1-2" data-name="Слой 1"><path class="cls-2" d="M262.54 111.06A18.07 18.07 0 0 1 244.48 93V73.88a18.07 18.07 0 0 1 18.06-18.06A22.13 22.13 0 0 1 284.68 78v11a22.15 22.15 0 0 1-22.14 22.14z"/><path class="cls-3" d="M262.54 113.77A20.8 20.8 0 0 1 241.76 93V73.88a20.8 20.8 0 0 1 20.78-20.77A24.88 24.88 0 0 1 287.39 78v11a24.87 24.87 0 0 1-24.85 24.77zm0-55.23a15.36 15.36 0 0 0-15.35 15.34V93a15.36 15.36 0 0 0 15.35 15.34A19.44 19.44 0 0 0 282 88.92V78a19.44 19.44 0 0 0-19.46-19.46z"/><ellipse class="cls-2" cx="232.61" cy="214.15" rx="16.98" ry="42.11" transform="rotate(-26.87 232.62 214.16)"/><path class="cls-3" d="M248.24 255.21c-9.93 0-23.29-12.61-33.2-32.16-11.55-22.79-12.71-43.81-2.69-48.89s26.27 8.29 37.82 31.09 12.71 43.82 2.7 48.89a10.16 10.16 0 0 1-4.63 1.07zm-31.18-76.7a4.88 4.88 0 0 0-2.26.5c-6 3-5.41 20.88 5.08 41.59s24.52 31.74 30.54 28.7 5.41-20.89-5.09-41.6c-9.33-18.42-21.47-29.19-28.27-29.19z"/><path class="cls-2" d="M199.91 152.64c-25.19-7.35-46.79 12.52-46.79 12.52S125.23 144.8 97 152c-64.69 16.59-69.69-31.32-69.69-73.31v-8.44A67.54 67.54 0 0 1 94.86 2.71h110a64 64 0 0 1 64 64v12c-.03 42.01 1.31 94.45-68.95 73.93z"/><path class="cls-3" d="M153.32 168.67l-1.8-1.31c-.27-.2-27.22-19.53-53.84-12.69-23.25 6-40.43 4.29-52.54-5.1-18-14-20.53-42.32-20.53-70.84v-8.48A70.34 70.34 0 0 1 94.86 0h110a66.77 66.77 0 0 1 66.69 66.69V81c0 26.95 0 57.5-18.61 71.49-11.9 8.92-29.5 9.81-53.8 2.72-23.43-6.84-44 11.72-44.18 11.91zm-43.55-20.92c20.11 0 37.63 10.36 43.17 14 5.71-4.61 25.16-18.3 47.73-11.71 22.54 6.58 38.58 6 49-1.86 16.47-12.35 16.45-41.46 16.44-67.14V66.69a61.33 61.33 0 0 0-61.25-61.26h-110A64.9 64.9 0 0 0 30 70.25v8.48c0 27.14 2.23 54 18.43 66.55 10.55 8.18 26.65 9.57 47.86 4.13a54.16 54.16 0 0 1 13.48-1.66z"/><path class="cls-2" d="M213.92 173.29c-31.46-20.22-61.26 13.18-61.26 13.18s-49.49-42.39-84-4.1C15 241.83 131.81 309.45 131.81 309.45s68.12-25.91 93.3-65.88c8.74-13.88 8.89-36.23 4.51-47.22-4.62-11.57-11.89-20.61-15.7-23.06z"/><path class="cls-3" d="M131.57 312.45l-1.12-.65a268.26 268.26 0 0 1-36-26.11c-24.8-21.35-38.91-42.12-41.99-61.69-2.46-15.67 2.3-30.28 14.15-43.43 31.88-35.34 76-5.22 85.82 2.28 7.14-6.92 34.45-30.15 63-11.82 4.67 3 12.21 12.92 16.75 24.34 5 12.47 4.25 35.4-4.73 49.67-10.69 17-29.88 33.39-57 48.84A303.46 303.46 0 0 1 132.78 312zM103.23 169c-12.58 0-23.48 5.06-32.59 15.15-10.7 11.87-15 25-12.82 38.93 6.41 40.76 65.35 77.93 74.24 83.32 9.2-3.7 68.17-28.47 90.75-64.32 8.4-13.32 8.16-35.05 4.29-44.77-4.32-10.84-11.28-19.61-14.64-21.77-12.14-7.8-25.46-8.11-39.59-.93a69.5 69.5 0 0 0-18.19 13.63l-1.77 2-2-1.73a99 99 0 0 0-28.32-15.95 59.28 59.28 0 0 0-19.36-3.56zM266.46 84.77c-.12-.22-3.23-5.53-8.93-5.53-2.07 0-17.11-.08-38.43-.2-60.41-.33-172.87-.93-179.74-.71-7.19.23-8.83 3-8.84 3L25.56 79c.26-.59 2.82-5.79 13.6-6.14 7-.23 119.49.38 179.94.71 21.3.12 36.33.2 38.4.2 8.91 0 13.47 8 13.66 8.31z"/><path class="cls-3" d="M93 153.59l-1.25-1.31c.13-.12 13-12.51 16.29-17.71 6.18-9.69 5.38-27.87 5.37-28.06 0-.87.57-82.37-2.73-91a21.53 21.53 0 0 0-11.41-12l.62-1.7a23 23 0 0 1 12.51 13.03c3.42 9 2.87 88.26 2.85 91.64 0 .71.84 18.89-5.66 29.06-3.44 5.39-16.02 17.53-16.59 18.05zM200.8 153.59l-1.25-1.31c.13-.12 13-12.51 16.29-17.71 6.19-9.69 5.38-27.87 5.37-28.06 0-.87.57-82.37-2.73-91a21.47 21.47 0 0 0-11.41-12l.62-1.7a23 23 0 0 1 12.48 13.05c3.43 9 2.87 88.26 2.85 91.64 0 .71.84 18.89-5.66 29.06-3.44 5.37-16.02 17.51-16.56 18.03z"/><path class="cls-4" d="M219.8 113.52H105.63A32.49 32.49 0 0 1 73.14 81V59.56a32.49 32.49 0 0 1 32.49-32.49H219.8a32.5 32.5 0 0 1 32.49 32.49V81a32.48 32.48 0 0 1-32.49 32.49z"/><path class="cls-3" d="M219.8 116.24H105.63A35.25 35.25 0 0 1 70.42 81V59.56a35.26 35.26 0 0 1 35.21-35.21H219.8A35.25 35.25 0 0 1 255 59.56V81a35.24 35.24 0 0 1-35.2 35.24zM105.63 29.78a29.81 29.81 0 0 0-29.78 29.78V81a29.81 29.81 0 0 0 29.78 29.78H219.8A29.81 29.81 0 0 0 249.57 81V59.56a29.81 29.81 0 0 0-29.77-29.78z"/><path d="M209.74 113.52H105.63A32.48 32.48 0 0 1 73.14 81V59.56a32.48 32.48 0 0 1 32.49-32.49h104.11a32.5 32.5 0 0 1 32.49 32.49V81a32.49 32.49 0 0 1-32.49 32.49z" fill="#fff"/><path class="cls-3" d="M209.74 115.33H105.63A34.34 34.34 0 0 1 71.33 81V59.56a34.34 34.34 0 0 1 34.3-34.3h104.11A34.34 34.34 0 0 1 244 59.56V81a34.34 34.34 0 0 1-34.26 34.33zM105.63 28.88A30.71 30.71 0 0 0 75 59.56V81a30.71 30.71 0 0 0 30.68 30.68h104.06A30.72 30.72 0 0 0 240.42 81V59.56a30.72 30.72 0 0 0-30.68-30.68zM284.5 96.06a10.5 10.5 0 0 0-3.24-7.74c-4.54-4.24-12.31-4-12.39-4l-.07-1.81c.34 0 8.61-.3 13.7 4.45a12.32 12.32 0 0 1 3.81 9z"/><ellipse cx="115.82" cy="339.04" rx="54.74" ry="7.84" opacity=".5" fill="#a77db5"/><path class="cls-4" d="M172.51 95h-7.37a17.58 17.58 0 0 1-17.58-17.58h42.54A17.59 17.59 0 0 1 172.51 95z"/><path class="cls-7" d="M127.26 73.17L120 77a1.89 1.89 0 0 1-2.74-2l1.39-8.14a1.86 1.86 0 0 0-.54-1.67l-5.91-5.76a1.89 1.89 0 0 1 1-3.22l8.17-1.21a1.89 1.89 0 0 0 1.43-1l3.65-7.4a1.89 1.89 0 0 1 3.39 0l3.65 7.4a1.88 1.88 0 0 0 1.42 1l8.17 1.19a1.88 1.88 0 0 1 1 3.22l-5.9 5.76a1.9 1.9 0 0 0-.55 1.67l1.4 8.14a1.89 1.89 0 0 1-2.74 2L129 73.17a1.89 1.89 0 0 0-1.74 0zM204.72 73.17l-7.3 3.83a1.89 1.89 0 0 1-2.74-2l1.39-8.14a1.86 1.86 0 0 0-.54-1.67l-5.91-5.76a1.89 1.89 0 0 1 1-3.22l8.21-1.21a1.89 1.89 0 0 0 1.43-1l3.65-7.4a1.89 1.89 0 0 1 3.39 0L211 54a1.88 1.88 0 0 0 1.42 1l8.17 1.19a1.89 1.89 0 0 1 1.05 3.22l-5.91 5.76a1.9 1.9 0 0 0-.55 1.67l1.4 8.14a1.89 1.89 0 0 1-2.74 2l-7.31-3.84a1.89 1.89 0 0 0-1.81.03z"/><path class="cls-3" d="M131 307.42l-6.25-5.77c-18.68-17.16-37.96-34.91-50.42-57.65l1.59-.87c12.32 22.47 31.48 40.11 50 57.18l6.26 5.78z"/><ellipse class="cls-4" cx="77.54" cy="208.46" rx="39.48" ry="18" transform="rotate(-69.61 77.55 208.46)"/><path class="cls-3" d="M66.79 247.81a10.27 10.27 0 0 1-3.64-.65c-5.21-1.93-8.43-7.91-9.08-16.84-.6-8.42 1.13-18.64 4.9-28.77s9.12-19 15.08-25c6.31-6.33 12.66-8.76 17.87-6.82s8.43 7.92 9.08 16.84c.61 8.43-1.13 18.64-4.89 28.77-7.17 19.29-19.38 32.47-29.32 32.47zm21.49-75.08c-3.4 0-7.51 2.23-11.67 6.4-5.6 5.63-10.66 14-14.25 23.69s-5.25 19.32-4.67 27.24c.52 7.32 3 12.32 6.72 13.71 8.23 3.06 21.19-10.53 28.3-29.67 3.59-9.65 5.25-19.33 4.68-27.25-.53-7.32-3-12.31-6.73-13.71a6.92 6.92 0 0 0-2.38-.41z"/><ellipse class="cls-2" cx="61.08" cy="210.31" rx="42.11" ry="17.1" transform="rotate(-56.43 61.06 210.3)"/><path class="cls-3" d="M42.29 249.36a10.66 10.66 0 0 1-6-1.7c-4.79-3.18-6.36-10.2-4.41-19.77 1.77-8.75 6.28-18.88 12.69-28.54 14.13-21.29 31.89-32.64 41.3-26.4 4.78 3.18 6.35 10.2 4.41 19.77-1.78 8.75-6.28 18.88-12.69 28.54-11.52 17.36-25.45 28.1-35.3 28.1zm6.8-47c-6 9.09-10.25 18.54-11.89 26.62-1.43 7.05-.65 12.34 2.09 14.16 5.67 3.76 20.93-5.53 33.77-24.87 6-9.09 10.26-18.54 11.9-26.62 1.43-7 .65-12.34-2.1-14.16-5.67-3.77-20.93 5.53-33.77 24.87z"/><path class="cls-3" d="M53.5 193a9.54 9.54 0 0 1 2.31-7.29c3.6-4 10-4.35 10.29-4.36h10c4.6 0 13.31 2.09 13.31 10h-1.78c0-8.09-11.39-8.18-11.5-8.18h-10s-5.9.3-9 3.76a7.78 7.78 0 0 0-1.85 6zM35.86 220.46a11.09 11.09 0 0 1 2.68-8.46c4.19-4.7 11.69-5.07 12-5.08h11.81c5.37 0 15.52 2.42 15.52 11.6h-1.81c0-9.66-13.15-9.79-13.71-9.79H50.58s-7 .36-10.69 4.48a9.32 9.32 0 0 0-2.22 7.13z"/><path class="cls-3" transform="rotate(-55.5 63.33 195.03)" d="M47.81 194.12h31.03v1.81H47.81z"/><path class="cls-8" d="M130.69 147.43a55.12 55.12 0 0 0-17.8-4c-5.13-.15-23.41-1.89-33-5.89-15.16-6.33-18.85-16.74-21-34.9-1-8.16-4.52-57.86 0-71.43s22-24.44 22-24.44S63.13 10.46 50 23.39A67.58 67.58 0 0 0 39.85 36a65 65 0 0 0-7.66 17.08c-4 15-3.53 32-1.35 50.36 2.29 19.29 6.6 29.8 12.37 36.71a30 30 0 0 0 9.59 7.93 37.77 37.77 0 0 0 10.79 3.77 58.91 58.91 0 0 0 17.25.37c7.73-.79 12.25-2.17 17.71-3.31a53.06 53.06 0 0 1 8.72-1.11c2-.09 4.12 0 6.37.07 6.34.07 16.47 2.82 21.7 4.93 2 .79 5.72 2.29 9.09 4 4.51 2.34 8.51 4.91 8.51 4.91s-11.09-9.6-22.25-14.28z"/><path class="cls-2" d="M30.09 111.06A22.13 22.13 0 0 1 8 88.92V78a22.13 22.13 0 0 1 22.09-22.18 18.07 18.07 0 0 1 18.06 18.06V93a18.06 18.06 0 0 1-18.06 18.06z"/><path class="cls-3" d="M30.09 113.77A24.87 24.87 0 0 1 5.24 88.92V78a24.88 24.88 0 0 1 24.85-24.89 20.8 20.8 0 0 1 20.78 20.77V93a20.8 20.8 0 0 1-20.78 20.77zm0-55.23A19.44 19.44 0 0 0 10.67 78v11a19.44 19.44 0 0 0 19.42 19.42A15.36 15.36 0 0 0 45.44 93V73.88a15.36 15.36 0 0 0-15.35-15.34z"/><path class="cls-3" d="M7.78 92.77a11.09 11.09 0 0 1 2.68-8.47c4.2-4.69 11.69-5.07 12-5.08h11.8c5.37 0 15.52 2.42 15.52 11.6H48C48 81.14 34.41 81 34.27 81H22.51s-7 .36-10.7 4.48a9.32 9.32 0 0 0-2.22 7.13z"/><path class="cls-4" d="M22.57 81l-8.43-49.79a9.63 9.63 0 1 0-4.77.16L7 81.91a7.83 7.83 0 0 0 8.34 8.18A7.83 7.83 0 0 0 22.57 81z"/><path class="cls-3" d="M14.85 91.92a9.64 9.64 0 0 1-9.63-10.09L7.5 32.7A11.48 11.48 0 0 1 4.26 13a11.48 11.48 0 1 1 11.92 19.39l8.18 48.27a9.65 9.65 0 0 1-8.87 11.24zm-3.37-77.86a7.72 7.72 0 0 0-4.94 1.76 7.86 7.86 0 0 0 3.23 13.79l1.48.33L8.83 82a6 6 0 0 0 6.42 6.28A6 6 0 0 0 19.58 86a6 6 0 0 0 1.21-4.74l-8.71-51.35 1.56-.44a7.85 7.85 0 0 0-.41-15.22 8.15 8.15 0 0 0-1.75-.19z"/><path class="cls-2" d="M14.14 31.21a9.63 9.63 0 1 0-4.77.16L7 81.91c-.22 4.67 7.77 5.55 7.74.87-.06-16.45-.6-51.57-.6-51.57z"/><path class="cls-3" d="M11.36 87.7a6.76 6.76 0 0 1-3.52-1 5.29 5.29 0 0 1-2.62-4.87L7.5 32.7A11.48 11.48 0 0 1 4.26 13 11.48 11.48 0 1 1 16 32.48c.1 6.51.54 35.81.61 50.29a4.64 4.64 0 0 1-2.4 4.23 5.85 5.85 0 0 1-2.85.7zm.12-73.64a7.72 7.72 0 0 0-4.94 1.76 7.86 7.86 0 0 0 3.23 13.79l1.48.33L8.83 82a1.74 1.74 0 0 0 .91 1.62 2.91 2.91 0 0 0 2.7.21 1 1 0 0 0 .52-1c-.08-16.25-.62-51.2-.63-51.55v-1.39l1.33-.38a7.85 7.85 0 0 0-.41-15.22 8.15 8.15 0 0 0-1.77-.23z"/><path class="cls-3" d="M15.51 25.91a.89.89 0 0 1-.57-.21.91.91 0 0 1-.13-1.27 5.63 5.63 0 0 0 .67-5.1 4.4 4.4 0 0 0-4-2.55.91.91 0 0 1 0-1.81 6.15 6.15 0 0 1 5.57 3.49 7.33 7.33 0 0 1-.84 7.12.91.91 0 0 1-.7.33z"/><path class="cls-8" d="M97.13 212.52s-2.34 14.19-.91 24.13C99.73 261 132 306.34 132 306.34s-7.06-4.33-14.38-9.47a287.17 287.17 0 0 1-14.31-10.83 213.09 213.09 0 0 1-20.74-19.18 173.64 173.64 0 0 1-15.05-19.12s4.92.08 11.24-5.23a54.85 54.85 0 0 0 11.46-14.42 96.39 96.39 0 0 0 6.91-15.57zM101.07 187.88a22.68 22.68 0 0 1 9-9.45c6-3.17 17.06-1.27 26.1 1.66 6.86 2.22 16.14 9.35 16.14 9.35.58.77-6-5.24-15.23-10.34a141.92 141.92 0 0 0-8.2-4 69.87 69.87 0 0 0-15.72-5.1 49 49 0 0 0-15.07-.65 27 27 0 0 0-5 .89 9.58 9.58 0 0 1 2.3 1.61 14.15 14.15 0 0 1 2.76 3.6 13.67 13.67 0 0 1 1.22 2.81 36.34 36.34 0 0 1 1.11 4.09 50.41 50.41 0 0 1 .59 5.53zM52.41 197.66s7.71-4.94 12.14-2c3.92 2.64 8.37 12.11 4 22.55-1.83 4.37-7.47 14.63-7.47 14.63a97.37 97.37 0 0 0 11.2-13.46C77.42 212 82.74 202.16 85 192.16c4.73-21.13-9.86-14.63-9.86-14.63s-8.09 3.77-13.3 9.35c-1.09 1.17-3 3-4.74 5-2.52 2.85-4.69 5.78-4.69 5.78zM100.15 29.41a60.28 60.28 0 0 0-10.83 13.8c-10.86 19-5.31 46.23-3.2 53.39 1 3.55 4.8 9 8.9 11.09 7.29 3.76 17.3 4.07 17.3 4.07s-5.47 0-9.25-.17a22.14 22.14 0 0 1-6.28-1.13 32.26 32.26 0 0 1-11.14-6.19 27.25 27.25 0 0 1-6.05-7 39.54 39.54 0 0 1-2.71-5.45A25.45 25.45 0 0 1 75.33 86a85.18 85.18 0 0 1-.37-10c0-5.23.07-10.53 0-14.66 0-1.47 0-3.16.09-4.34a20.78 20.78 0 0 1 .54-3.73 22.49 22.49 0 0 1 1.75-5.66 30.37 30.37 0 0 1 7.34-10.51c8.32-7.24 15.47-7.69 15.47-7.69zM164.27 180s10.11-6.67 33.88.34c24 7.07 31.56 31.56 31.56 31.56a46.74 46.74 0 0 0-1.36-10.55 54.56 54.56 0 0 0-4.55-11.09 71.85 71.85 0 0 0-3-5c-2.06-3.16-4.08-6.26-7.39-8.94a24.36 24.36 0 0 0-3.93-2.46 34 34 0 0 0-4.12-2c-12.38-4.51-21.44-2.34-31.17 2.1a50.85 50.85 0 0 0-9.92 6.04z"/><path class="cls-8" d="M225.11 181.75s7.31 11.49 8.69 19.16l.57 2.82c.19 1.13.29 2.21.43 3.51a53.66 53.66 0 0 1 .33 5.81 59.35 59.35 0 0 1-.22 6.52 71.64 71.64 0 0 1-.9 7.73 60.73 60.73 0 0 1-3 10.6l6.19 6.44a25.12 25.12 0 0 0 5.43-10.4c1.35-6 5.13-22.06-2.83-35.86-5.11-8.82-14.69-16.33-14.69-16.33z"/><path class="cls-3" transform="rotate(-33.41 234.58 215.09)" d="M233.68 208.06h1.81v14.06h-1.81z"/><path class="cls-3" d="M230.42 231.77l-1.42-1.11c.48-.62 11.92-15.23 15.65-17.44 4.33-2.57 6.17.27 6.18.3l-1.53 1 .76-.48-.75.5c-.1-.14-1-1.33-3.74.28s-11.9 12.8-15.15 16.95zM229 195.45l-1.61-.82a13.55 13.55 0 0 1 5.18-4.94c4.33-2.58 6.17.26 6.19.3l-1.54.95.77-.48-.76.5c-.1-.14-1-1.32-3.74.28a12.13 12.13 0 0 0-4.49 4.21z"/><path class="cls-8" d="M23.9 59.5s11.84-1.36 13.35 7.5c1.43 8.42.73 26.88-1 30.92-4.23 10-12.37 9.43-12.37 9.43s9.65 3.47 16-2.57 5.43-11.31 5.43-11.31V71.15a21.2 21.2 0 0 0-1.88-4.9A24.39 24.39 0 0 0 41 63.08c-5.71-7.26-17.1-3.58-17.1-3.58zM271.27 60.63l-.27 45.71s5.75-3.4 7.22-5.66-3-12-4.23-16.74-2.72-23.31-2.72-23.31z"/><path class="cls-9" d="M97.5 202s8.42-7.5 23.29-7.3c16.77.24 34.61 7.54 34.61 7.54a90.57 90.57 0 0 1 41.6-7.58c26.08 1.77 35.45 17.92 35.45 17.92M97.5 178.43s8.69-4.55 23.56-4.35c16.77.23 31.6 12.39 31.6 12.39s23.1-13.66 46-11.71a42.09 42.09 0 0 1 28.68 14.75"/></g></g></g></svg>