<svg id="Слой_1" xmlns="http://www.w3.org/2000/svg" viewBox="0 0 325.8 375.4"><style>.st0{fill:#86579e}.st2{fill:#e6d7ea}.st3{fill:#a77db5}.st4{fill:#7c5090}.st5{fill:#fff}.st7{fill:#f8b133}.st8{opacity:.39;fill:#a77db5}.st11,.st9{fill:none;stroke:#a77db5;stroke-width:4;stroke-miterlimit:10}.st11{stroke-width:2}.st13{fill:#ddb890}.st14,.st15{fill:none;stroke-linecap:round;stroke-miterlimit:10}.st14{stroke-linejoin:round;stroke:#86579e}.st15{stroke:#a77db5}</style><path class="st0" d="M5.4 276.3s33.7-11.2 30.2-25.8-13.3-38-3.3-45.3c10-7.3 33.6-18.2 75.8-20.1s97.8-14.5 109.7-1.3c11.9 13.3 1.7 24 1.7 24s-9-8.6-18.8-10.6c-9.8-2.1-45-6.3-54.4-4.9-9.4 1.4-63 7.5-75.3 14.8-10.6 6.3-16.6 12.1-20.2 20.6-2.1 5-1.3 15.4-1.2 24.5.1 9.1-19.8 31.6-19.8 31.6l-24.4-7.5z"/><path d="M77.5 261.4c0 3.2 15.6 4.7-9 4.7S24 263.5 24 260.3s19.9-5.8 44.5-5.8 9 3.7 9 6.9z" fill="#b17f49"/><path class="st2" d="M281.2 139.6c-4.7 0-9-1.8-12.2-4.7-3.6-3.3-5.9-8.1-5.9-13.3v-19.1c0-5.4 2.4-10.2 6.1-13.5 3.2-2.8 7.4-4.5 12-4.5 5.2 0 10 1.8 13.8 4.8 5.1 4.1 8.4 10.3 8.4 17.3v11c0 6.4-2.7 12.2-7.1 16.3-4 3.5-9.3 5.7-15.1 5.7z"/><path class="st3" d="M281.2 142.3c-11.5 0-20.8-9.3-20.8-20.8v-19.1c0-11.5 9.3-20.8 20.8-20.8 13.7 0 24.9 11.1 24.9 24.9v11c0 13.7-11.1 24.8-24.9 24.8zm0-55.2c-8.5 0-15.3 6.9-15.3 15.3v19.1c0 8.5 6.9 15.3 15.3 15.3 10.7 0 19.4-8.7 19.4-19.4v-11c.1-10.6-8.6-19.3-19.4-19.3z"/><ellipse transform="rotate(-26.87 251.3 242.681)" class="st2" cx="251.3" cy="242.7" rx="17" ry="42.1"/><path class="st3" d="M266.9 283.7c-9.9 0-23.3-12.6-33.2-32.2-11.6-22.8-12.7-43.8-2.7-48.9 10-5.1 26.3 8.3 37.8 31.1 11.6 22.8 12.7 43.8 2.7 48.9-1.3.8-2.9 1.1-4.6 1.1zM235.8 207c-.8 0-1.6.2-2.3.5-6 3-5.4 20.9 5.1 41.6s24.5 31.7 30.5 28.7c6-3.1 5.4-20.9-5.1-41.6-9.3-18.4-21.4-29.2-28.2-29.2z"/><path class="st2" d="M218.6 181.2c-25.2-7.4-46.8 12.5-46.8 12.5s-27.9-20.4-56.1-13.1C51 197.2 46 149.2 46 107.3v-8.5c0-37.3 30.2-67.5 67.5-67.5h110c35.3 0 64 28.6 64 64v12c0 41.9 1.4 94.4-68.9 73.9z"/><path class="st3" d="M172 197.2l-1.8-1.3c-.3-.2-27.2-19.5-53.8-12.7-23.2 6-40.4 4.3-52.5-5.1-18-14-20.5-42.3-20.5-70.8v-8.5c0-38.7 31.5-70.3 70.3-70.3h110c36.8 0 66.7 29.9 66.7 66.7v14.4c0 27 0 57.5-18.6 71.5-11.9 8.9-29.5 9.8-53.8 2.7-23.4-6.8-44 11.7-44.2 11.9l-1.8 1.5zm-43.5-20.9c20.1 0 37.6 10.4 43.2 14 5.7-4.6 25.2-18.3 47.7-11.7 22.5 6.6 38.6 6 49-1.9 16.5-12.4 16.4-41.5 16.4-67.1V95.2c0-33.8-27.5-61.3-61.3-61.3h-110C77.8 34 48.7 63 48.7 98.8v8.5c0 27.1 2.2 54 18.4 66.5 10.5 8.2 26.6 9.6 47.9 4.1 4.6-1.1 9.1-1.6 13.5-1.6z"/><path class="st2" d="M232.6 201.8c-31.5-20.2-61.3 13.2-61.3 13.2s-49.5-42.4-84-4.1C33.7 270.4 150.5 338 150.5 338s68.1-25.9 93.3-65.9c8.7-13.9 8.9-36.2 4.5-47.2-4.6-11.6-11.9-20.6-15.7-23.1z"/><path class="st3" d="M150.3 341l-1.1-.6c-.2-.1-17.8-10.4-36.1-26.1-24.7-21.4-38.9-42.1-41.9-61.7-2.5-15.7 2.3-30.3 14.2-43.4 31.9-35.3 76-5.2 85.8 2.3 7.1-6.9 34.4-30.1 63-11.8 4.7 3 12.2 12.9 16.8 24.3 5 12.5 4.2 35.4-4.7 49.7-10.7 17-29.9 33.4-57 48.8-20.1 11.4-37.4 18.1-37.6 18.1l-1.4.4zm-28.4-143.4c-12.6 0-23.5 5.1-32.6 15.2-10.7 11.9-15 25-12.8 38.9 6.4 40.8 65.4 77.9 74.2 83.3 9.2-3.7 68.2-28.5 90.8-64.3 8.4-13.3 8.2-35.1 4.3-44.8-4.3-10.8-11.3-19.6-14.6-21.8-12.1-7.8-25.5-8.1-39.6-.9-10.8 5.5-18.1 13.6-18.2 13.6l-1.8 2-2-1.7c-.1-.1-12.3-10.4-28.3-16-6.8-2.4-13.3-3.5-19.4-3.5zM285.2 113.3c-.1-.2-3.2-5.5-8.9-5.5-2.1 0-17.1-.1-38.4-.2-60.4-.3-172.9-.9-179.7-.7-7.2.2-8.8 3-8.8 3l-4.9-2.3c.3-.6 2.8-5.8 13.6-6.1 7-.2 119.5.4 179.9.7 21.3.1 36.3.2 38.4.2 8.9 0 13.5 8 13.7 8.3l-4.9 2.6z"/><path class="st3" d="M111.7 182.1l-1.3-1.3c.1-.1 13-12.5 16.3-17.7 6.2-9.7 5.4-27.9 5.4-28.1 0-.9.6-82.4-2.7-91-3.4-9-11.3-12-11.4-12l.6-1.7c.4.1 8.7 3.3 12.5 13.1 3.4 9 2.9 88.3 2.9 91.6 0 .7.8 18.9-5.7 29.1-3.4 5.4-16 17.5-16.6 18zM219.5 182.1l-1.3-1.3c.1-.1 13-12.5 16.3-17.7 6.2-9.7 5.4-27.9 5.4-28.1 0-.9.6-82.4-2.7-91-3.4-9-11.3-12-11.4-12l.6-1.7c.4.1 8.7 3.3 12.5 13.1 3.4 9 2.9 88.3 2.9 91.6 0 .7.8 18.9-5.7 29.1-3.5 5.4-16.1 17.5-16.6 18z"/><path class="st4" d="M238.5 142H124.3c-7.7 0-14.8-2.7-20.4-7.2-7.4-6-12.1-15.1-12.1-25.3V88.1c0-8.2 3.1-15.8 8.1-21.5 6-6.7 14.7-11 24.4-11h114.2c9.6 0 18.3 4.2 24.2 10.9 5.1 5.7 8.2 13.3 8.2 21.6v21.5c0 9.5-4.1 18-10.5 23.9-5.7 5.3-13.4 8.5-21.9 8.5z"/><path class="st3" d="M238.5 144.8H124.3c-19.4 0-35.2-15.8-35.2-35.2V88.1c0-19.4 15.8-35.2 35.2-35.2h114.2c19.4 0 35.2 15.8 35.2 35.2v21.5c0 19.4-15.8 35.2-35.2 35.2zM124.3 58.3c-16.4 0-29.8 13.4-29.8 29.8v21.5c0 16.4 13.4 29.8 29.8 29.8h114.2c16.4 0 29.8-13.4 29.8-29.8V88.1c0-16.4-13.4-29.8-29.8-29.8H124.3z"/><path class="st5" d="M228.4 142H124.3c-7.7 0-14.8-2.7-20.4-7.2-7.4-6-12.1-15.1-12.1-25.3V88.1C91.8 78 96.5 69 103.7 63c5.6-4.6 12.8-7.4 20.7-7.4h104.1c9.9 0 18.7 4.4 24.7 11.4 4.9 5.7 7.8 13 7.8 21.1v21.5c0 9-3.6 17.1-9.5 23s-14.1 9.4-23.1 9.4z"/><path class="st3" d="M228.4 143.9H124.3c-18.9 0-34.3-15.4-34.3-34.3V88.1c0-18.9 15.4-34.3 34.3-34.3h104.1c18.9 0 34.3 15.4 34.3 34.3v21.5c0 18.9-15.3 34.3-34.3 34.3zM124.3 57.4c-16.9 0-30.7 13.8-30.7 30.7v21.5c0 16.9 13.8 30.7 30.7 30.7h104.1c16.9 0 30.7-13.8 30.7-30.7V88.1c0-16.9-13.8-30.7-30.7-30.7H124.3zM303.2 124.6c-.1-3.2-1.2-5.8-3.2-7.7-4.5-4.2-12.3-4-12.4-4l-.1-1.8c.3 0 8.6-.3 13.7 4.5 2.4 2.3 3.7 5.3 3.8 9h-1.8z"/><ellipse cx="134.5" cy="367.6" rx="54.7" ry="7.8" opacity=".5" fill="#a77db5"/><path class="st4" d="M191.2 123.6h-7.4c-4.9 0-9.3-2-12.4-5.2-3.2-3.2-5.2-7.6-5.2-12.4h42.5c0 4.6-1.7 8.7-4.6 11.9-3.1 3.4-7.7 5.7-12.9 5.7z"/><path class="st7" d="M146 101.7l-7.3 3.8c-1.4.7-3-.4-2.7-2l1.4-8.1c.1-.6-.1-1.2-.5-1.7l-5.9-5.8c-1.1-1.1-.5-3 1-3.2l8.2-1.2c.6-.1 1.1-.5 1.4-1l3.7-7.4c.7-1.4 2.7-1.4 3.4 0l3.7 7.4c.3.6.8.9 1.4 1l8.2 1.2c1.5.2 2.2 2.1 1 3.2l-5.9 5.8c-.4.4-.6 1.1-.5 1.7l1.4 8.1c.3 1.5-1.4 2.7-2.7 2l-7.3-3.8c-.8-.3-1.5-.3-2 0zM223.4 101.7l-7.3 3.8c-1.4.7-3-.4-2.7-2l1.4-8.1c.1-.6-.1-1.2-.5-1.7l-5.9-5.8c-1.1-1.1-.5-3 1-3.2l8.2-1.2c.6-.1 1.1-.5 1.4-1l3.7-7.4c.7-1.4 2.7-1.4 3.4 0l3.7 7.4c.3.6.8.9 1.4 1l8.2 1.2c1.5.2 2.2 2.1 1 3.2l-5.9 5.8c-.4.4-.6 1.1-.5 1.7l1.4 8.1c.3 1.5-1.4 2.7-2.7 2l-7.3-3.8c-.8-.3-1.4-.3-2 0z"/><path class="st3" d="M149.7 335.9c-2.1-1.9-4.2-3.8-6.3-5.8-18.6-17.2-37.9-34.9-50.4-57.6l1.6-.9c12.3 22.5 31.5 40.1 50 57.2 2.1 1.9 4.2 3.8 6.3 5.8l-1.2 1.3z"/><ellipse transform="rotate(-69.617 96.24 236.973)" class="st4" cx="96.2" cy="237" rx="39.5" ry="18"/><path class="st3" d="M85.5 276.3c-1.3 0-2.5-.2-3.6-.6-5.2-1.9-8.4-7.9-9.1-16.8-.6-8.4 1.1-18.6 4.9-28.8 3.8-10.1 9.1-19 15.1-25 6.3-6.3 12.7-8.8 17.9-6.8 5.2 1.9 8.4 7.9 9.1 16.8.6 8.4-1.1 18.6-4.9 28.8-7.2 19.3-19.5 32.4-29.4 32.4zm21.5-75c-3.4 0-7.5 2.2-11.7 6.4-5.6 5.6-10.7 14-14.3 23.7-3.6 9.6-5.2 19.3-4.7 27.2.5 7.3 3 12.3 6.7 13.7 8.2 3.1 21.2-10.5 28.3-29.7 3.6-9.6 5.2-19.3 4.7-27.2-.5-7.3-3-12.3-6.7-13.7-.7-.3-1.5-.4-2.3-.4z"/><ellipse transform="rotate(-56.427 79.788 238.826)" class="st2" cx="79.8" cy="238.8" rx="42.1" ry="17.1"/><path class="st3" d="M61 277.9c-2.2 0-4.3-.6-6-1.7-4.8-3.2-6.4-10.2-4.4-19.8 1.8-8.7 6.3-18.9 12.7-28.5 14.1-21.3 31.9-32.6 41.3-26.4 4.8 3.2 6.4 10.2 4.4 19.8-1.8 8.7-6.3 18.9-12.7 28.5-11.5 17.3-25.5 28.1-35.3 28.1zm6.8-47c-6 9.1-10.3 18.5-11.9 26.6-1.4 7-.6 12.3 2.1 14.2 5.7 3.8 20.9-5.5 33.8-24.9 6-9.1 10.3-18.5 11.9-26.6 1.4-7 .6-12.3-2.1-14.2-5.7-3.8-21 5.5-33.8 24.9z"/><path class="st3" d="M72.2 221.5c-.2-2.9.6-5.4 2.3-7.3 3.6-4 10-4.3 10.3-4.4h10c4.6 0 13.3 2.1 13.3 10h-1.8c0-8.1-11.4-8.2-11.5-8.2h-10s-5.9.3-9 3.8c-1.4 1.6-2 3.6-1.8 6l-1.8.1zM54.6 249c-.2-3.4.7-6.2 2.7-8.5 4.2-4.7 11.7-5.1 12-5.1h11.8c5.4 0 15.5 2.4 15.5 11.6h-1.8c0-9.7-13.1-9.8-13.7-9.8H69.3s-7 .4-10.7 4.5c-1.7 1.9-2.4 4.3-2.2 7.1l-1.8.2z"/><path transform="rotate(-55.503 82.035 223.537)" class="st3" d="M66.5 222.6h31v1.8h-31z"/><path class="st8" d="M149.4 176c-5.6-2.3-12.7-3.8-17.8-4-5.1-.2-23.4-1.9-33-5.9-15.2-6.3-18.9-16.7-21-34.9-1-8.2-4.5-57.9 0-71.4s21.9-24.4 21.9-24.4S81.8 39 68.7 51.9c-4 4-7.4 8.1-10.2 12.6-3.2 5.2-6 11-7.7 17.1-4 15-3.5 32-1.4 50.4 2.3 19.3 6.6 29.8 12.4 36.7 2.7 3.2 5.8 6 9.6 7.9 3.4 1.7 6.5 3 10.8 3.8 6.6 1.2 12.3.9 17.3.4 7.7-.8 12.2-2.2 17.7-3.3 2.1-.5 5.1-.9 8.7-1.1 2-.1 4.1 0 6.4.1 6.3.1 16.5 2.8 21.7 4.9 2 .8 5.7 2.3 9.1 4 4.5 2.3 8.5 4.9 8.5 4.9s-11-9.7-22.2-14.3z"/><path class="st2" d="M48.8 139.6c-6.6 0-12.5-2.9-16.5-7.4-3.5-3.9-5.6-9.1-5.6-14.7v-11c0-7.6 3.8-14.3 9.7-18.3 3.6-2.4 7.8-3.8 12.5-3.8 4.4 0 8.5 1.6 11.6 4.2 3.9 3.3 6.4 8.3 6.4 13.8v19.1c0 4.8-1.9 9.1-4.9 12.4-3.3 3.5-8 5.7-13.2 5.7z"/><path class="st3" d="M48.8 142.3c-13.7 0-24.9-11.1-24.9-24.9v-11c0-13.7 11.1-24.9 24.9-24.9 11.5 0 20.8 9.3 20.8 20.8v19.1c0 11.6-9.3 20.9-20.8 20.9zm0-55.2c-10.7 0-19.4 8.7-19.4 19.4v11c0 10.7 8.7 19.4 19.4 19.4 8.5 0 15.3-6.9 15.3-15.3v-19.1c0-8.6-6.8-15.4-15.3-15.4z"/><path class="st3" d="M26.5 121.3c-.2-3.4.7-6.2 2.7-8.5 4.2-4.7 11.7-5.1 12-5.1H53c5.4 0 15.5 2.4 15.5 11.6h-1.8c0-9.7-13.6-9.8-13.7-9.8H41.2s-7 .4-10.7 4.5c-1.7 1.9-2.4 4.3-2.2 7.1l-1.8.2z"/><path class="st4" d="M41.3 109.5l-8.4-49.8c4.6-1.3 7.8-5.9 6.9-11.1-.8-3.7-3.8-6.8-7.5-7.6-6.3-1.3-11.8 3.4-11.8 9.5 0 4.6 3.2 8.5 7.6 9.4l-2.3 50.5c-.2 4.7 3.7 8.5 8.3 8.2 4.6-.3 8-4.5 7.2-9.1z"/><path class="st3" d="M33.6 120.4c-2.5 0-4.9-1-6.8-2.8-2-1.9-3-4.6-2.9-7.3l2.3-49.1c-4.5-1.6-7.5-5.9-7.5-10.8 0-3.5 1.6-6.7 4.3-8.9 2.7-2.2 6.2-3 9.7-2.3 4.4.9 8 4.6 8.8 9.1 1 5.3-1.8 10.5-6.6 12.6l8.2 48.3c.5 2.7-.3 5.4-1.9 7.6-1.7 2.1-4.2 3.5-6.9 3.6h-.7zm-3.4-77.8c-1.8 0-3.5.6-4.9 1.8-1.9 1.5-2.9 3.7-2.9 6.1 0 3.7 2.5 6.9 6.1 7.7l1.5.3-2.4 52.1c-.1 1.7.6 3.4 1.8 4.6 1.2 1.2 2.9 1.8 4.6 1.7 1.7-.1 3.3-.9 4.3-2.3 1.1-1.4 1.5-3 1.2-4.7l-8.7-51.4 1.6-.4c3.9-1.1 6.3-5 5.6-9-.6-3.1-3-5.5-6-6.2-.7-.3-1.2-.3-1.8-.3z"/><path class="st2" d="M32.9 59.7c4.6-1.3 7.8-5.9 6.9-11.1-.8-3.7-3.8-6.8-7.5-7.6-6.3-1.3-11.8 3.4-11.8 9.5 0 4.6 3.2 8.5 7.6 9.4l-2.3 50.5c-.2 4.7 7.8 5.5 7.7.9-.1-16.4-.6-51.6-.6-51.6z"/><path class="st3" d="M30.1 116.2c-1.2 0-2.5-.3-3.5-1-1.8-1.1-2.7-2.9-2.6-4.9l2.3-49.1c-4.5-1.6-7.5-5.9-7.5-10.8 0-3.5 1.6-6.7 4.3-8.9 2.7-2.2 6.2-3 9.7-2.3 4.4.9 8 4.6 8.8 9.1 1 5.4-1.9 10.6-6.8 12.7.1 6.5.5 35.8.6 50.3 0 1.8-.9 3.4-2.4 4.2-.9.5-1.9.7-2.9.7zm.1-73.6c-1.8 0-3.5.6-4.9 1.8-1.9 1.5-2.9 3.7-2.9 6.1 0 3.7 2.5 6.9 6.1 7.7l1.5.3-2.4 52.1c0 .7.3 1.2.9 1.6.8.5 2 .6 2.7.2.3-.1.5-.4.5-1-.1-16.3-.7-51.3-.7-51.6v-1.4l1.3-.4c3.9-1.1 6.3-5 5.6-9-.6-3.1-3-5.5-6-6.2-.6-.2-1.1-.2-1.7-.2z"/><path class="st3" d="M34.2 54.4c-.2 0-.4-.1-.6-.2-.4-.3-.4-.9-.1-1.3 1.1-1.4 1.2-4.1.7-5.1-.9-1.7-2.3-2.6-4-2.6-.5 0-.9-.4-.9-.9s.4-.9.9-.9c1.7 0 4 .6 5.6 3.5.9 1.7.8 5.2-.8 7.1-.3.3-.5.4-.8.4z"/><path class="st8" d="M115.8 241s-2.3 14.2-.9 24.1c3.5 24.3 35.7 69.7 35.7 69.7s-7.1-4.3-14.4-9.5c-5.6-3.9-11.4-8.5-14.3-10.8-3.2-2.6-13-10.7-20.7-19.2-8.6-9.4-15-19.1-15-19.1s4.9.1 11.2-5.2c4.2-3.5 8.4-9 11.5-14.4 4.5-7.9 6.9-15.6 6.9-15.6zM119.8 216.4s2.9-6.3 9-9.4 17.1-1.3 26.1 1.7c6.9 2.2 16.1 9.4 16.1 9.4.6.8-6-5.2-15.2-10.3-2.4-1.3-5.6-2.8-8.2-4-5-2.4-10.9-4.2-15.7-5.1-7.2-1.4-12.1-1-15.1-.7-3.4.4-5 .9-5 .9s1 .5 2.3 1.6c.9.8 1.9 2 2.8 3.6.5.8.9 1.7 1.2 2.8.4 1.2.8 2.6 1.1 4.1.5 2.6.6 5.4.6 5.4zM71.1 226.2s7.7-4.9 12.1-2c3.9 2.6 8.4 12.1 4 22.5-1.8 4.4-7.5 14.6-7.5 14.6s5.5-5.2 11.2-13.5c5.1-7.4 10.5-17.3 12.7-27.3 4.7-21.1-9.9-14.6-9.9-14.6s-8.1 3.8-13.3 9.4c-1.1 1.2-3.1 3-4.7 5-2.4 3-4.6 5.9-4.6 5.9zM118.9 57.9s-6 5.3-10.8 13.8c-10.9 19-5.3 46.2-3.2 53.4 1 3.5 4.8 9 8.9 11.1 7.3 3.8 17.3 4.1 17.3 4.1s-5.5 0-9.2-.2c-2.3-.1-4.1-.4-6.3-1.1-2.7-.9-4.8-1.9-7.2-3.3-1.6-1-2.8-2-3.9-2.9-2.5-2.1-4.2-4.1-6-7-.9-1.5-2-3.6-2.7-5.4-.6-1.6-1.2-3.4-1.6-5.8-.4-2.5-.4-7.2-.4-10 0-5.2.1-10.5 0-14.7 0-1.5 0-3.2.1-4.3.2-2.4.3-2.8.5-3.7.3-1.5.4-2.4 1.8-5.7 1.4-3.4 3.9-7.6 7.3-10.6 8.2-7.2 15.4-7.7 15.4-7.7zM183 208.5s10.1-6.7 33.9.3c24 7.1 31.6 31.6 31.6 31.6s0-4.9-1.4-10.5c-.9-3.8-2.9-7.9-4.6-11.1-.7-1.3-2.1-3.7-3-5-2.1-3.2-4.1-6.3-7.4-8.9-1.2-.9-2.6-1.7-3.9-2.5-1.4-.7-2.7-1.4-4.1-1.9-12.4-4.5-21.4-2.3-31.2 2.1-5.8 2.6-9.9 5.9-9.9 5.9z"/><path class="st8" d="M243.8 210.3s7.3 11.5 8.7 19.2c.1.6.5 2.4.6 2.8.2 1.1.3 2.2.4 3.5.2 1.9.3 3.6.3 5.8 0 2.1 0 4.5-.2 6.5-.4 3.3-.3 5.1-.9 7.7-1.6 7.3-3 10.6-3 10.6l6.2 6.4s4.1-4.4 5.4-10.4c1.4-6 5.1-22.1-2.8-35.9-5.1-8.7-14.7-16.2-14.7-16.2z"/><path transform="rotate(-33.41 253.305 243.633)" class="st3" d="M252.4 236.6h1.8v14.1h-1.8z"/><path class="st3" d="M249.1 260.3l-1.4-1.1c.5-.6 11.9-15.2 15.6-17.4 4.3-2.6 6.2.3 6.2.3l-1.5 1 .8-.5-.8.4c-.1-.1-1-1.3-3.7.3-2.9 1.7-11.9 12.8-15.2 17zM247.7 224l-1.6-.8c.1-.1 1.4-2.7 5.2-4.9 4.3-2.6 6.2.3 6.2.3l-1.5 1 .8-.5-.8.5c-.1-.1-1-1.3-3.7.3-3.5 1.8-4.6 4.1-4.6 4.1z"/><path class="st8" d="M42.6 88s11.8-1.4 13.3 7.5c1.4 8.4.7 26.9-1 30.9-4.2 10-12.4 9.4-12.4 9.4s9.7 3.5 16-2.6S64 122 64 122V99.7s-.5-2.5-1.9-4.9c-.6-1.2-1.7-2.2-2.5-3.2-5.6-7.3-17-3.6-17-3.6zM290 89.2l-.3 45.7s5.8-3.4 7.2-5.7c1.5-2.3-3-12-4.2-16.7-1.2-4.8-2.7-23.3-2.7-23.3z"/><path class="st9" d="M116.2 230.5s8.4-7.5 23.3-7.3c16.8.2 34.6 7.5 34.6 7.5s18.6-9.1 41.6-7.6c26.1 1.8 35.4 17.9 35.4 17.9M116.2 207s8.7-4.6 23.6-4.3c16.8.2 31.6 12.4 31.6 12.4s23.1-13.7 46-11.7c18.8 1.6 28.7 14.8 28.7 14.8"/><path d="M121.5 18.3c8.6-3.3 26.2-6.6 36.7-1.5s24.7-13.7 44.6-14.3c12.6-.4 34.5 13.3 17.6 24s-102.1 15.2-111.9 9.7 7.8-15.9 13-17.9z" fill="#7c5090" stroke="#a77db5" stroke-width="5" stroke-miterlimit="10"/><path class="st11" d="M124 18.3l-7.4 20.2M134.1 15l-8.4 23.5M142.4 15L134 38.5M151.1 15l-8.5 23.5M158.3 18.3l-7.2 20.2M167 18.3l-7.2 20.2M179 11.4l-9 24.8M190 6.1l-11 30.1M200.4 3.2l-12.1 33M210.2 3.2l-11.1 30.3M219 6.1l-9.3 25.1"/><ellipse transform="rotate(-2.306 163.008 17.075) scale(1.00001)" class="st2" cx="163" cy="17.1" rx="6.1" ry="2.4"/><ellipse class="st11" cx="166.8" cy="24.9" rx="55.5" ry="4.4"/><path class="st11" d="M177.4 12.1s37.1-1.3 47.7 6.2"/><path class="st2" d="M185.6 28.8c-1 0-1.9-.8-2-1.8-.1-1.1.7-2.1 1.8-2.1 6.5-.5 24.3-2.9 28.6-7.7.8-.9.8-1.5.7-1.9-.2-1.3-1.8-2.7-2.2-2.9-.9-.6-1.2-1.9-.6-2.8.6-.9 1.9-1.2 2.8-.6.4.2 3.5 2.4 3.9 5.8.2 1.2 0 3.1-1.7 5-6.1 6.9-28.7 8.8-31.2 9h-.1z" opacity=".7"/><path class="st3" d="M309.3 283.8c-9-11.5-19.8-20.9-29.5-24.3-.3-.1-.7 1.1-1 1 3.8 6.8 4.3 13.5.8 16.2-4.2 3.3-12.8-.5-19.2-8.6-.8-1-1.6-2.1-2.2-3.2-7.1 10-2.2 30.9 12.3 49.3 16 20.4 37.6 30.1 48.4 21.7 10.7-8.3 6.4-31.7-9.6-52.1z"/><path class="st13" d="M310.3 282.8c-9.3-11.9-20.6-20.1-30.5-23.3 3.8 6.8 4.3 13.5.8 16.2-4.2 3.3-12.8-.5-19.2-8.6-.8-1-1.6-2.1-2.2-3.2-7.1 10-2.2 30.9 12.3 49.3 16 20.4 37.6 30.1 48.4 21.7 10.7-8.4 6.4-31.7-9.6-52.1z"/><path class="st4" d="M217.9 183.8c5.4 2.9 13 19.4 4.1 26.4-41.3 32.4-107.8-5.3-120-12.6-1.1-.6-1.4-2.1-.6-3.1 1.9-2.8 6.2-6.9 9.2-8.7 1.8-1.1 4.5-1.1 8-.6 11.2 1.8 30.2 10 51 12 25.7 2.6 40.1-17.8 48.3-13.4z"/><path class="st14" d="M7.2 276.3l-6.7 2.1M9.4 277l-6.6 2.1M12 277.7l-6.7 2.2M14.3 278.1l-6.4 2.8M16.8 278.6l-6.2 3.4M18.9 279.2l-5.6 4.2M21.8 279.6l-5.1 4.7M24.1 280.3l-4.7 5.2M27.4 281.1l-4.5 5.3M30.8 281.8l-4.3 5.5"/><path class="st15" d="M120.7 185.7c-8-.8-15.5 8.8-16 13.4M126.5 187.9c-8-.8-15.5 8.8-16 13.4M132.2 189.8c-8.2-.9-15.9 9.6-16.4 14.5M138.9 191.8c-8.7-1-16.8 10.1-17.3 15.3M145.6 193.7c-8.7-1-16.8 10.1-17.3 15.3M150.9 196.1c-8.7-1-14.8 10.1-15.3 15.3M158.5 197.2c-8.7-1-14.9 11.3-15.4 16.5M165.8 198.7c-8.7-1-13.5 12.7-14 17.9M172.3 199.4c-8.7-1-11.4 14.5-11.9 19.7M177.1 199.3c-7.6.8-6.8 15.7-7.3 20.9M214.1 184.5c8.7-1 9 15.6 9.5 20.8M210.9 187.2c8.7-1 9 15.6 9.5 20.8M206.8 189.7c8.7-1 9 15.6 9.5 20.8M201.2 192.9c8.7-1 9 15.6 9.5 20.8M195.1 195.4c8.7-1 9 15.6 9.5 20.8M188.8 197.4c8.7-1 9 15.6 9.5 20.8M184.3 198.8c7.6 3.3 7.3 16.2 7.8 21.4M181.1 199.3c-5.5 3.3-4.1 16.4-4.5 21.6"/><ellipse transform="rotate(-30 269.225 290.426)" class="st0" cx="269.2" cy="290.4" rx="5" ry="7.8"/><ellipse transform="rotate(-30 285.064 288.552)" class="st3" cx="285.1" cy="288.5" rx="5" ry="7.8"/><ellipse transform="rotate(-30 299.064 285.512)" class="st4" cx="299.1" cy="285.5" rx="5" ry="7.8"/><ellipse transform="rotate(-30 286.188 307.76)" class="st7" cx="286.2" cy="307.8" rx="5" ry="7.8"/><ellipse transform="rotate(-30 304.891 324.886)" cx="304.9" cy="324.9" rx="5" ry="7.8" fill="#93c01f"/><ellipse transform="rotate(-30 310.72 307.762)" class="st5" cx="310.7" cy="307.8" rx="5" ry="7.8"/><path class="st13" d="M119.2 260.4c0 3.2-19.9 5.2-44.5 5.8-14 .3-13.5-2-13.5-5.2s-1.5-7.2 13.5-6.3c24.5 1.2 44.5 2.5 44.5 5.7z"/><path d="M119.2 260.4c0 3.2-12.6 5-37.2 5.6-14 .3-12.2-3.3-12.2-5.5s-1-6.2 14-5.4c24.6 1.3 35.4 2.1 35.4 5.3z" fill="#9c9b9b"/><path d="M140.7 265.2s-15.4-.3-26 3.3c-9 3-13.8-3.1-13.8-7s4.5-7.9 12.1-7.9c7.7 0 27.7 11.6 27.7 11.6z" fill="#3c3c3b"/><path class="st4" d="M140.7 265.2s-15.4-.3-26 3.3c-9 3 8.4-3.2 8.4-7s-17.7-7.8-10-7.8c7.6-.1 27.6 11.5 27.6 11.5z"/><g opacity=".57"><path class="st5" d="M63.9 263.9c-.5 0-1-.5-1-1 0-.6.4-1 1-1l32.7-.1c.6 0 1 .4 1 1s-.4 1-1 1l-32.7.1z"/></g><g opacity=".5"><path class="st5" d="M109.4 267.8c-3.2 0-5.1-3.6-5.1-3.7-.1-.2 0-.5.2-.7.2-.1.5 0 .7.2 0 0 1.9 3.5 4.6 3.2 1.1-.1 3.8-.9 6.7-1.8 6.5-2 11.1-3.3 12.7-2.6.3.1.4.4.3.7-.1.3-.4.4-.7.3-1.3-.6-7.5 1.3-12 2.7-3.1.9-5.7 1.7-6.9 1.9-.2-.2-.3-.2-.5-.2z"/></g></svg>