<svg xmlns="http://www.w3.org/2000/svg" viewBox="0 0 355.87 496.85"><defs><style>.cls-2{fill:#b17f49}.cls-16,.cls-3{fill:#b1b1b1}.cls-12,.cls-19,.cls-20,.cls-3{mix-blend-mode:multiply}.cls-4{mix-blend-mode:soft-light}.cls-5{fill:#c99d66}.cls-6{fill:#e6d7ea}.cls-12,.cls-7{fill:#a77db5}.cls-19,.cls-20,.cls-8{fill:#7c5090}.cls-11,.cls-15{fill:none;stroke:#a77db5;stroke-miterlimit:10}.cls-12{opacity:.39}.cls-13{fill:#f29100}.cls-14{fill:#f8b133}.cls-15{stroke-width:4px}.cls-18{fill:#c6c6c5}.cls-19{opacity:.15}.cls-20{opacity:.33}.cls-24{fill:#d2bada}</style></defs><g style="isolation:isolate"><g id="Слой_2" data-name="Слой 2"><g id="Слой_1-2" data-name="Слой 1"><path class="cls-2" d="M38.82 359.39v-.13L17.26 369a6.32 6.32 0 1 0 5.22 11.52l19-8.6c-2.82-3.2-3.12-8.46-2.66-12.53z"/><path class="cls-3" d="M38.82 359.39v-.13s-1.73 9.42-4.54 11.8c-13.87 11.77-17.69 9.15-17.69 9.15a6.39 6.39 0 0 0 5.86.34l19-8.6c-2.79-3.23-3.09-8.49-2.63-12.56z"/><g class="cls-4"><path class="cls-5" d="M17.27 372.56a1.12 1.12 0 0 1-.45-2.15l23.55-10.35a1.11 1.11 0 0 1 1.47.57 1.13 1.13 0 0 1-.57 1.48l-23.55 10.35a1 1 0 0 1-.45.1z"/></g><path class="cls-6" d="M325.09 208.2a22.36 22.36 0 0 1-22.36-22.36v-23.67a22.38 22.38 0 0 1 22.36-22.37 27.43 27.43 0 0 1 27.42 27.42v13.57a27.42 27.42 0 0 1-27.42 27.41z"/><path class="cls-7" d="M325.09 211.56a25.75 25.75 0 0 1-25.72-25.72v-23.67a25.75 25.75 0 0 1 25.72-25.73 30.82 30.82 0 0 1 30.78 30.78v13.57a30.81 30.81 0 0 1-30.78 30.77zm0-68.39a19 19 0 0 0-19 19v23.67a19 19 0 0 0 19 19 24.07 24.07 0 0 0 24.05-24.05v-13.57a24.07 24.07 0 0 0-24.05-24.05z"/><ellipse class="cls-6" cx="288.03" cy="335.86" rx="21.02" ry="52.15" transform="rotate(-26.87 288.05 335.86)"/><path class="cls-7" d="M307.39 386.7c-12.29 0-28.85-15.62-41.11-39.82-14.31-28.23-15.74-54.26-3.34-60.54s32.54 10.27 46.84 38.5 15.74 54.25 3.34 60.53a12.47 12.47 0 0 1-5.73 1.33zm-35.12-42.86c13 25.65 30.36 39.3 37.81 35.54s6.7-25.86-6.29-51.51-30.35-39.31-37.79-35.53-6.7 25.85 6.29 51.5z"/><path class="cls-6" d="M247.54 259.69c-31.18-9.1-57.94 15.51-57.94 15.51S155.07 250 120.12 259C40 279.49 33.83 220.16 33.83 168.17v-10.5A83.64 83.64 0 0 1 117.47 74h136.2a79.22 79.22 0 0 1 79.22 79.22v14.91c0 52.03 1.65 116.96-85.35 91.56z"/><path class="cls-7" d="M189.85 279.53l-2.23-1.62c-.33-.24-33.71-24.17-66.66-15.71-28.79 7.38-50.07 5.32-65.06-6.31-22.35-17.34-25.43-52.41-25.43-87.71v-10.51a87.1 87.1 0 0 1 87-87h136.2a82.67 82.67 0 0 1 82.58 82.58V171c0 33.37 0 71.2-23 88.52-14.73 11.05-36.53 12.15-66.62 3.37-29-8.46-54.46 14.52-54.71 14.75zm-53.93-25.89c24.91 0 46.61 12.82 53.46 17.33 7.07-5.7 31.16-22.66 59.1-14.5 27.92 8.15 47.77 7.39 60.7-2.3 20.38-15.3 20.36-51.34 20.34-83.14v-17.77a75.94 75.94 0 0 0-75.85-75.86h-136.2a80.36 80.36 0 0 0-80.27 80.27v10.51c0 33.59 2.8 66.82 22.8 82.39 13.06 10.14 33 11.86 59.27 5.12a66.75 66.75 0 0 1 16.65-2.05z"/><path class="cls-6" d="M264.89 285.26c-39-25-75.86 16.32-75.86 16.32s-61.28-52.49-104-5.07c-66.41 73.62 91.69 157.36 91.69 157.36s70.9-32.09 102.08-81.58c10.82-17.19 11-44.87 5.58-58.48-5.75-14.32-14.77-25.52-19.49-28.55z"/><path class="cls-7" d="M176.55 457.61l-1.46-.77a381.56 381.56 0 0 1-50.24-33.2c-34.52-27.12-54.24-53.41-58.61-78.15-3.26-18.44 2.21-35.67 16.24-51.23 39.48-43.77 94.09-6.47 106.27 2.81 8.85-8.57 42.65-37.33 78-14.63 5.78 3.71 15.12 16 20.75 30.13 6.15 15.44 5.26 43.85-5.87 61.51-31.4 49.78-100.63 81.52-103.58 82.85zM127.82 280c-15.56 0-29.07 6.26-40.34 18.76C74.9 312.7 70 328 72.86 344.32c9.12 51.57 91.85 99.1 103.92 105.78 10.35-5 71.33-35.49 99.12-79.6 10.4-16.51 10.1-43.42 5.31-55.44-5.35-13.43-14-24.29-18.13-27-36.13-23.21-71.19 15.34-71.54 15.73l-2.19 2.45-2.5-2.14c-.15-.12-15.21-12.88-35.08-19.75a73.41 73.41 0 0 0-23.95-4.35zM330 175.64c-.15-.26-4-6.84-11.05-6.84-2.56 0-21.22-.1-47.66-.25-74.78-.4-214-1.16-222.49-.88-8.91.29-10.93 3.68-11 3.71l-6.09-2.82c.31-.74 3.49-7.18 16.83-7.61 8.64-.28 147.91.48 222.74.88 26.56.14 45.27.24 47.66.24 11 0 16.68 9.87 16.92 10.29z"/><path class="cls-7" d="M115.2 260.86l-1.56-1.61c.16-.16 16.06-15.49 20.17-21.94 7.67-12 6.67-34.51 6.66-34.74 0-1.08.71-102-3.39-112.71A26.64 26.64 0 0 0 123 75l.76-2.1a28.49 28.49 0 0 1 15.46 16.16c4.24 11.11 3.56 109.29 3.53 113.47 0 .88 1 23.39-7 36-4.31 6.66-19.89 21.69-20.55 22.33zM248.65 260.86l-1.56-1.61c.16-.16 16.06-15.49 20.17-21.94 7.67-12 6.67-34.51 6.66-34.74 0-1.08.71-102-3.39-112.71A26.72 26.72 0 0 0 256.4 75l.77-2.1a28.49 28.49 0 0 1 15.46 16.16c4.24 11.11 3.56 109.29 3.53 113.47 0 .88 1 23.39-7 36-4.27 6.66-19.85 21.69-20.51 22.33z"/><path class="cls-8" d="M272.17 211.25H130.8A40.22 40.22 0 0 1 90.57 171v-26.57a40.21 40.21 0 0 1 40.23-40.23h141.37a40.23 40.23 0 0 1 40.23 40.23V171a40.22 40.22 0 0 1-40.23 40.23z"/><path class="cls-7" d="M272.17 214.61H130.8A43.64 43.64 0 0 1 87.2 171v-26.57a43.64 43.64 0 0 1 43.6-43.59h141.37a43.63 43.63 0 0 1 43.59 43.59V171a43.63 43.63 0 0 1-43.59 43.61zm-141.37-107a36.91 36.91 0 0 0-36.87 36.87V171a36.91 36.91 0 0 0 36.87 36.87h141.37A36.91 36.91 0 0 0 309 171v-26.57a36.91 36.91 0 0 0-36.87-36.87z"/><path d="M259.71 211.25H130.8A40.21 40.21 0 0 1 90.57 171v-26.57a40.21 40.21 0 0 1 40.23-40.23h128.91a40.22 40.22 0 0 1 40.23 40.23V171a40.23 40.23 0 0 1-40.23 40.23z" fill="#fff"/><path class="cls-7" d="M259.71 213.49H130.8A42.52 42.52 0 0 1 88.33 171v-26.57A42.52 42.52 0 0 1 130.8 102h128.91a42.52 42.52 0 0 1 42.47 42.47V171a42.52 42.52 0 0 1-42.47 42.49zm-128.91-107a38 38 0 0 0-38 38V171a38 38 0 0 0 38 38h128.91a38 38 0 0 0 38-38v-26.57a38 38 0 0 0-38-38zM352.29 189.62a13.09 13.09 0 0 0-4-9.58c-5.62-5.25-15.24-4.91-15.35-4.91l-.09-2.24c.43 0 10.66-.37 17 5.51a15.22 15.22 0 0 1 4.72 11.16z"/><ellipse cx="167.61" cy="487.14" rx="67.78" ry="9.71" opacity=".5" fill="#a77db5"/><path class="cls-8" d="M208 196.37h-9.12a21.78 21.78 0 0 1-21.78-21.78h52.68A21.79 21.79 0 0 1 208 196.37z"/><path class="cls-11" d="M177.42 452.07c-25.63-23.79-67.34-48.68-84.39-79.78"/><ellipse class="cls-8" cx="98.66" cy="328.64" rx="47.31" ry="21.57" transform="rotate(-69.61 98.68 328.65)"/><path class="cls-7" d="M85.78 375.79a12.44 12.44 0 0 1-4.36-.77c-12.47-4.64-14.68-28.64-5-54.65s27-42.74 39.48-38.11 14.68 28.64 5 54.65c-8.57 23.09-23.21 38.88-35.12 38.88zm25.66-90c-9.8 0-23.25 15.31-31 36.07-8.44 22.96-7.36 45.43 2.49 49.14s25.39-12.62 33.91-35.55 7.4-45.41-2.46-49.07a8.31 8.31 0 0 0-2.94-.57z"/><ellipse class="cls-6" cx="75.63" cy="331.09" rx="52.15" ry="21.17" transform="rotate(-56.43 75.61 331.08)"/><path class="cls-7" d="M52.36 379.46a13.2 13.2 0 0 1-7.43-2.11c-11.65-7.74-7.24-33.46 10.26-59.82 17.5-26.37 39.48-40.41 51.14-32.69 5.92 3.94 7.86 12.63 5.46 24.48-2.2 10.83-7.78 23.38-15.72 35.34-14.26 21.49-31.51 34.8-43.71 34.8zm8.43-58.22c-15.9 24-19.16 45.85-12.14 50.5s25.92-6.85 41.82-30.8c7.47-11.25 12.7-23 14.73-33 1.77-8.73.8-15.28-2.59-17.53-7-4.67-25.92 6.84-41.82 30.79z"/><path class="cls-11" d="M67.37 309.56C66.5 297 81.9 296.33 81.9 296.33h12.37s15.36 0 15.36 11.25"/><path class="cls-7" d="M44.41 343.67a13.66 13.66 0 0 1 3.32-10.49c5.19-5.81 14.46-6.28 14.86-6.3H77.2c6.65 0 19.22 3 19.22 14.38h-2.24c0-12-16.81-12.13-17-12.13H62.64s-8.7.44-13.25 5.54a11.59 11.59 0 0 0-2.75 8.84z"/><path class="cls-7" transform="rotate(-55.5 78.43 312.18)" d="M59.21 311.05h38.42v2.24H59.21z"/><path class="cls-12" d="M161.83 253.24a68.19 68.19 0 0 0-22-5c-6.35-.18-28.16-.85-40.9-2.18-18.31-1.9-34-9.8-38.36-29.41-2.2-9.94-7-81.95 4.36-103.1 14.6-27.13 35.17-34.47 35.17-34.47S78.18 83.63 62 99.65a83.86 83.86 0 0 0-12.62 15.62 80.49 80.49 0 0 0-9.48 21.14c-5 18.6-4.37 39.66-1.68 62.37 2.84 23.88 8.18 36.89 15.32 45.45a37.35 37.35 0 0 0 11.88 9.82 46.55 46.55 0 0 0 13.36 4.68 72.57 72.57 0 0 0 21.36.45c9.58-1 15.17-2.68 21.93-4.1a66 66 0 0 1 10.8-1.37c2.44-.11 5.1 0 7.89.08 7.84.09 20.4 3.5 26.87 6.11 2.42 1 7.08 2.83 11.25 5 5.58 2.89 10.54 6.08 10.54 6.08s-13.77-11.98-27.59-17.74z"/><path class="cls-6" d="M37.26 208.2a27.41 27.41 0 0 1-27.41-27.41v-13.57a27.42 27.42 0 0 1 27.41-27.42 22.37 22.37 0 0 1 22.37 22.37v23.67a22.37 22.37 0 0 1-22.37 22.36z"/><path class="cls-7" d="M37.26 211.56a30.81 30.81 0 0 1-30.77-30.77v-13.57a30.82 30.82 0 0 1 30.77-30.78A25.76 25.76 0 0 1 63 162.17v23.67a25.75 25.75 0 0 1-25.74 25.72zm0-68.39a24.07 24.07 0 0 0-24 24.05v13.57a24.08 24.08 0 0 0 24 24.05 19 19 0 0 0 19-19v-23.67a19 19 0 0 0-19-19z"/><path class="cls-7" d="M9.64 185.56a13.73 13.73 0 0 1 3.36-10.5c5.19-5.81 14.47-6.27 14.86-6.29h14.58c6.64 0 19.21 3 19.21 14.37h-2.24c0-12-16.8-12.13-17-12.13H27.87s-8.7.45-13.25 5.55a11.55 11.55 0 0 0-2.74 8.84z"/><path class="cls-8" d="M28 170.94l-10.49-61.61a11.92 11.92 0 1 0-5.91.2l-2.9 62.58A9.7 9.7 0 0 0 19 182.24a9.7 9.7 0 0 0 9-11.3z"/><path class="cls-7" d="M18.39 184.5A11.94 11.94 0 0 1 6.46 172l2.82-60.83a14.22 14.22 0 0 1-4-24.39 14.21 14.21 0 1 1 14.76 24l10.13 59.78a11.93 11.93 0 0 1-11 13.9zm-4.18-96.41a9.6 9.6 0 0 0-6.11 2.18 9.73 9.73 0 0 0 4 17.07l1.84.41-3 64.46a7.47 7.47 0 0 0 7.94 7.79 7.46 7.46 0 0 0 6.86-8.69L15 107.72l1.93-.55a9.72 9.72 0 0 0-.51-18.85 10.82 10.82 0 0 0-2.21-.23z"/><path class="cls-6" d="M17.51 109.33a11.92 11.92 0 1 0-5.91.2l-2.9 62.58c-.27 5.78 9.62 6.87 9.59 1.08-.11-20.37-.78-63.86-.78-63.86z"/><path class="cls-7" d="M14.07 179.27A8.32 8.32 0 0 1 9.71 178a6.59 6.59 0 0 1-3.25-6l2.82-60.83a14.22 14.22 0 0 1-4-24.39 14.21 14.21 0 1 1 14.5 24.12c.12 8.07.66 44.34.75 62.28a5.78 5.78 0 0 1-2.93 5.22 7.3 7.3 0 0 1-3.53.87zm.14-91.18a9.6 9.6 0 0 0-6.11 2.18 9.73 9.73 0 0 0 4 17.07l1.84.41-3 64.46a2.15 2.15 0 0 0 1.12 2 3.64 3.64 0 0 0 3.34.26 1.28 1.28 0 0 0 .65-1.29c-.11-20.13-.77-63.4-.78-63.84v-1.72l1.65-.47a9.72 9.72 0 0 0-.51-18.85 10.82 10.82 0 0 0-2.2-.21z"/><path class="cls-7" d="M19.21 102.76a1.12 1.12 0 0 1-.87-1.83 7 7 0 0 0 .83-6.31 5.46 5.46 0 0 0-4.94-3.16 1.12 1.12 0 1 1 0-2.24 7.6 7.6 0 0 1 6.89 4.31c1.16 2.08.95 6.38-1 8.82a1.11 1.11 0 0 1-.91.41z"/><path class="cls-12" d="M120.27 333.84a58.94 58.94 0 0 0-1.54 41.66c13.47 40.67 58.13 74.5 58.13 74.5s-15.41-8.53-24.23-14.56c-7-4.77-18.6-13-22.18-15.92-3.93-3.19-18.78-14.82-28.43-25.32-10.65-11.61-15.14-18.46-15.14-18.46s4.44 0 10.92-4.51c5-3.54 8.86-8.31 12.56-14.53 5.73-9.64 9.91-22.86 9.91-22.86zM126.72 301.73s2.05-6.18 9.52-10.11 21.12-1.57 32.31 2.06c8.5 2.75 20 11.58 20 11.58.72 1-7.38-6.49-18.86-12.81-3-1.65-6.91-3.46-10.15-5a86.37 86.37 0 0 0-19.4-6.27 60.31 60.31 0 0 0-18.67-.8 48.18 48.18 0 0 0-7.34 1.34 14.87 14.87 0 0 1 4 1.64 17.5 17.5 0 0 1 4 3.79 13.56 13.56 0 0 1 1.7 3.06 37.24 37.24 0 0 1 1.7 4.6 39.65 39.65 0 0 1 1.19 6.92zM64.89 315.44s15.28-13.79 20.76-10.1c4.86 3.27 8.25 17.53 2.83 30.46-2.26 5.4-12.85 23.25-12.85 23.25a120.29 120.29 0 0 0 13.87-16.67c6.37-9.16 13-21.37 15.74-33.76C111.1 282.46 93 290.5 93 290.5s-10 4.67-16.46 11.58c-1.36 1.46-3.79 3.76-5.87 6.15-3.08 3.58-5.78 7.21-5.78 7.21zM124 107.09a74.62 74.62 0 0 0-13.4 17.09c-13.45 23.54-6.59 57.25-4 66.12 1.29 4.39 5.94 11.12 11 13.73 9 4.65 21.42 5 21.42 5s-6.78 0-11.45-.21a27.28 27.28 0 0 1-7.78-1.4 39.39 39.39 0 0 1-9-4.13 40.43 40.43 0 0 1-4.84-3.54 33.63 33.63 0 0 1-7.48-8.63 49.37 49.37 0 0 1-3.36-6.75 31.51 31.51 0 0 1-1.93-7.18 103.73 103.73 0 0 1-.46-12.38c0-6.48.08-13 0-18.15 0-1.82 0-3.92.12-5.37a24.77 24.77 0 0 1 .66-4.62 28 28 0 0 1 2.17-7 37.39 37.39 0 0 1 9.09-13.08c10.38-8.94 19.24-9.5 19.24-9.5zM203.41 293.55s12.52-8.27 42 .41c29.73 8.76 39.08 39.08 39.08 39.08a58.12 58.12 0 0 0-1.73-13.04 67.18 67.18 0 0 0-5.64-13.73 88.95 88.95 0 0 0-3.71-6.2c-2.55-3.91-5.05-7.75-9.15-11.06a30.33 30.33 0 0 0-4.87-3.05 41 41 0 0 0-5.09-2.41c-15.33-5.59-26.56-2.9-38.61 2.59a62.8 62.8 0 0 0-12.28 7.41z"/><path class="cls-12" d="M278.75 295.73s9.05 14.23 10.76 23.73c.13.71.62 3 .7 3.49.24 1.4.36 2.74.54 4.35a67.64 67.64 0 0 1 .41 7.19 75.31 75.31 0 0 1-.27 8.08c-.46 4.13-.43 6.31-1.12 9.57-1.94 9.06-3.74 13.13-3.74 13.13l7.66 8a31.06 31.06 0 0 0 6.72-12.88c1.68-7.47 6.35-27.32-3.5-44.41-6.3-10.98-18.16-20.25-18.16-20.25z"/><path class="cls-7" transform="rotate(-33.41 290.48 337.02)" d="M289.35 328.32h2.24v17.41h-2.24z"/><path class="cls-7" d="M285.33 357.68l-1.77-1.38c.6-.77 14.77-18.85 19.38-21.59 5.36-3.19 7.64.33 7.66.37l-1.91 1.18 1-.59-.94.62c-.12-.18-1.28-1.64-4.63.35-3.57 2.09-14.77 15.89-18.79 21.04zM283.52 312.7l-2-1c.06-.14 1.7-3.33 6.41-6.13 5.37-3.19 7.64.34 7.66.37l-1.9 1.19.95-.59-.93.61c-.12-.17-1.28-1.64-4.63.35a14.87 14.87 0 0 0-5.56 5.2z"/><path class="cls-12" d="M29.59 144.36s17.93-.52 19.8 10.5c1.77 10.43.91 33.29-1.21 38.29-5.18 12.32-18.59 10.51-18.59 10.51s12 4.29 19.8-3.18 6.73-14 6.73-14l.05-27.64a26.11 26.11 0 0 0-2.33-6.07 32.24 32.24 0 0 0-3.12-4c-7.03-8.97-21.13-4.41-21.13-4.41zM335.91 145.75l-.32 56.61s4-1.16 5.83-4-2-10.7-3.47-16.59-2.04-36.02-2.04-36.02z"/><path class="cls-13" d="M139.08 80.12s13 20.49 84.57 15.87c48.37-3.12 33.14-22 33.14-22z"/><path class="cls-7" d="M203.7 98.91c-54.66 0-66-16.8-66.52-17.59l-2.05-3.24 122.69-6.43.72.9c.19.23 4.63 5.87 1.87 12.17-3.35 7.61-15.67 12.15-36.62 13.51-7.27.47-13.96.68-20.09.68zm-59.24-16.83c7.32 5.29 28 15 79 11.67 25.05-1.61 31.3-7.46 32.79-10.8a7.44 7.44 0 0 0-.66-6.69z"/><path class="cls-13" d="M117.47 70.68S119.2 27 153.08 9.43c8.53-4.42 19.1-7.19 32.19-7.19 68.64 0 69.94 69.15 69.94 69.15s4.13.56 1.44 2.35c-6.06 4-19 10.72-38.79 11.56-40.1 1.68-77.14-4.91-77.14-4.91s-2.66-3.84-9.9-8.25c-5.32-3.23-13.35-1.46-13.35-1.46z"/><path class="cls-7" d="M204.54 87.81a414.19 414.19 0 0 1-64.21-5.21l-.92-.16-.53-.77s-2.57-3.56-9.23-7.61c-3.73-2.27-9.71-1.63-11.7-1.19l-2.84.62.12-2.9c.07-1.83 2.18-45.19 36.82-63.15C161.58 2.5 172.75 0 185.27 0c63.85 0 71.26 58.72 72.09 69.62a3.49 3.49 0 0 1 2.37 2.38c.18.76.17 2.25-1.84 3.59-6.14 4.1-19.49 11.09-39.89 11.95-4.57.19-9.06.27-13.46.27zM142 78.33c5.69.94 39.71 6.24 75.82 4.73 17-.72 28.8-5.88 35.29-9.72l-.11-1.91a86.18 86.18 0 0 0-9.05-33.73c-11.42-22-31.15-33.22-58.65-33.22-11.79 0-22.28 2.34-31.16 6.94-27.58 14.3-33.13 47-34.17 56.65 3.12-.27 8.13-.22 12 2.16a40.48 40.48 0 0 1 10.03 8.1z"/><path class="cls-7" d="M182.23 86.84c-2.47 0-6-.89-6-3.36 0-10.53 2.63-38.23-6-53.65a52.62 52.62 0 0 0-17.73-19.14c-1.81-1.7-1.51-1.62-.79-2.11 2.13-1.47 2.44-1.91 4.63-1.57.8.12 9 .42 20.89 17.38 13.35 19 11.08 57.29 11.08 59 0 2.48-3.55 3.5-6 3.5zM238.46 81.89h-.07c-2.48 0-2.45.43-2.41-2 0-.62 2.24-71-38.67-75.13-2.46-.25-7 0-6.53-2.47s7.78.11 10.22.57c20.69 3.88 29.91 14.07 37.68 38.74a136.3 136.3 0 0 1 5.84 36.37c-.04 2.4-3.62 3.92-6.06 3.92z"/><path class="cls-7" d="M129.7 72.16c0-1.12-.13-27.63 12.12-44.8 8.11-11.37 16.73-15.54 20.06-16.8l1 2-.21.09c-3.14 1.19-11.28 5.13-19 16-11.83 16.59-11.7 43.21-11.7 43.47zM74.4 358.26a8.22 8.22 0 1 1 8.22-8.26 8.23 8.23 0 0 1-8.22 8.26zm0-14.2a6 6 0 1 0 6 6 6 6 0 0 0-6-6z"/><path class="cls-2" d="M136.1 322.36a6.32 6.32 0 0 0-8.37-3.16l-56.66 25.47a7.25 7.25 0 0 0-2.82 6.95c.83 3.49 4.62 4.93 7.88 4.65l56.81-25.54a6.32 6.32 0 0 0 3.16-8.37z"/><path class="cls-3" d="M99.05 331.61s-.94 6.66-4.26 11.33a33.55 33.55 0 0 1-10.79 9.8l18.09-8.13z"/><g class="cls-4"><path class="cls-5" d="M69.11 350.18a1.12 1.12 0 0 1-.45-2.15l31.42-13.81a1.12 1.12 0 1 1 .9 2l-31.42 13.86a1 1 0 0 1-.45.1z"/></g><path class="cls-14" d="M152.44 162.17l-9 4.75a2.34 2.34 0 0 1-3.4-2.46l1.73-10.07a2.33 2.33 0 0 0-.67-2.07l-7.32-7.14a2.34 2.34 0 0 1 1.3-4l10.11-1.47a2.34 2.34 0 0 0 1.76-1.28l4.52-9.16a2.34 2.34 0 0 1 4.2 0l4.52 9.16a2.34 2.34 0 0 0 1.76 1.28l10.05 1.48a2.34 2.34 0 0 1 1.3 4l-7.3 7.13a2.33 2.33 0 0 0-.67 2.07l1.72 10.07a2.33 2.33 0 0 1-3.39 2.46l-9-4.75a2.34 2.34 0 0 0-2.22 0zM248.35 162.17l-9 4.75a2.34 2.34 0 0 1-3.4-2.46l1.73-10.07a2.33 2.33 0 0 0-.67-2.07l-7.32-7.14a2.34 2.34 0 0 1 1.3-4l10.11-1.47a2.34 2.34 0 0 0 1.76-1.28l4.52-9.16a2.34 2.34 0 0 1 4.2 0l4.52 9.16a2.34 2.34 0 0 0 1.76 1.28l10.11 1.47a2.34 2.34 0 0 1 1.3 4l-7.32 7.14a2.33 2.33 0 0 0-.67 2.07l1.72 10.07a2.33 2.33 0 0 1-3.39 2.46l-9-4.75a2.34 2.34 0 0 0-2.26 0z"/><path class="cls-15" d="M121.87 323.27s10.33-8.86 28.56-8.62c20.56.28 42.44 8.9 42.44 8.9a114.62 114.62 0 0 1 51-8.93c32 2.1 43.47 21.17 43.47 21.17M121.87 295.46s10.66-5.38 28.89-5.14c20.56.27 38.75 14.63 38.75 14.63s28.32-16.13 56.41-13.83a52.06 52.06 0 0 1 35.17 17.42"/><path class="cls-16" d="M125.1 335.6a8.22 8.22 0 1 1 8.22-8.22 8.23 8.23 0 0 1-8.22 8.22zm0-14.2a6 6 0 1 0 6 6 6 6 0 0 0-6-6z"/><path d="M158.3 335.86s28.91 1.07 38.31 1c9.63-.06 38.49-2 38.49-2s-.79-32-3-42.22c-3.16-14.68-7.94-16.74-7.94-16.74a40.6 40.6 0 0 1 6.57-1.83 15.43 15.43 0 0 1 6.65-.19c6.32 1.51 14.47 21.53 16.26 29s3.22 29.17 3.94 38.87c.56 7.35.75 20.27 5.45 28.37a63.18 63.18 0 0 0 9.62 12.88 50.93 50.93 0 0 1-35.79 25.08c-25.78 4.57-44.55 4.13-78 4.13-11.42 0-54.25-6.68-62.77-14.79C88.3 390 85 384.62 85 384.62s31.25-5.32 44.79-23.79c2.72-3.71 7.1-9.09 8-13.76 7.69-38.53-7.42-73.63-7.42-73.63s13.83.13 16.93 3.5c9.87 10.75 11 58.92 11 58.92z" style="mix-blend-mode:multiply" fill="#575756" opacity=".58"/><path class="cls-13" d="M161.82 337.47S190 339 199.43 339c9.62-.05 38.48-2 38.48-2s-.79-34.11-3-44.33c-3.16-14.68-10.75-16.74-10.75-16.74s9.7-3.52 16-2 14.47 21.53 16.26 29 3.22 29.17 4 38.87c.55 7.35.74 20.27 5.44 28.37a63 63 0 0 0 9.61 12.83 51 51 0 0 1-35.8 25.08c-25.77 4.57-44.55 4.13-78 4.13-11.42 0-56.25-8.75-66.14-15.13s-9.85-11.54-9.85-11.54 43.76-7.16 53.43-35.33c6.91-20.16-1.71-72.55-8-76s15.92-.57 19 2.8c9.89 10.68 11.71 60.46 11.71 60.46z"/><path class="cls-18" d="M139.08 350.18s34.86 6.52 59.82 5.83 62.24-4.01 62.24-4.01l2.22 13.1a358.77 358.77 0 0 1-64.52 6.42 357.83 357.83 0 0 1-69.09-6.74s3.45-3.82 4.45-5.21 4.88-9.39 4.88-9.39z"/><path class="cls-19" d="M205.74 6.9s-20.47-2.42-36.89 9.43c-17.46 12.59-21.09 62.75-21.09 62.75l-5.76-.75s-6.06-6.66-12.25-9.2-9.76-1.06-9.76-1.06 3.07-40.5 34.17-56.65c24-12.49 51.58-4.52 51.58-4.52z"/><path class="cls-20" d="M154.47 285.36s-3.95-.21-8.64 3.23-6.7 11.11-6.7 11.11-3.18-22.38-8-25.56 8.86-.7 8.86-.7 8.12 1.74 10.16 3.5c1.74 1.55 4.32 8.42 4.32 8.42zM248.24 282.8s-2.39-.59-7.08 2.85-5.92 9.34-5.92 9.34-1.28-13.47-10.07-18.32c-1.37-.75-.58-.94.81-1.39a63 63 0 0 1 7.73-1.56 15.43 15.43 0 0 1 6.92.33 7.29 7.29 0 0 1 2.68 1.86c.22.24.61.64 1.14 1.25a24.63 24.63 0 0 1 1.86 2.5 17 17 0 0 1 1.93 3.14z"/><path d="M141.19 317.42s8.53 45.66-3.27 67.89C128.81 402.45 128 407 128 407s-25.09-5.7-32.5-10a32.45 32.45 0 0 1-8-7.46c-1.88-2.72-1.86-4.08-1.86-4.08s34.34-7.39 44.1-20.78c3.52-4.82 6.91-9.11 9.33-14.55 1.52-3.43 1.72-7.38 2.09-10.63.72-6.22.03-22.08.03-22.08z" style="mix-blend-mode:multiply" opacity=".25" fill="#7c5090"/><path class="cls-16" d="M66.22 275.75c-1.3-.29-1.76 1.56-.86 2.53 8.87 9.62 28.41 32.51 33.69 53.33 5.13 20.26 12 59.06 14.59 76.25.22 1.41 2.26 3.18 2.85 1.83l8.19-87.76a1.22 1.22 0 0 0-.41-1.06l-44.63-39.08a1.27 1.27 0 0 0-.31-.2z"/><path d="M66.21 275.75a.53.53 0 0 0-.47.95c11.36 6.93 38.56 25.59 47.11 50.11 8.43 24.22 4.29 66.41 2.26 82.55a.71.71 0 0 0 1.38.33c6.19-17.39 22.35-66.61 14.45-86.55-9.8-24.75-49.94-41.82-64.73-47.39z" fill="#9c9b9b"/><path class="cls-2" d="M139 321.14a6.33 6.33 0 0 0-8.37-3.16l-8.41 3.83a7.28 7.28 0 0 0-2.82 6.95c.83 3.49 4.62 4.93 7.88 4.64l8.56-3.89a6.32 6.32 0 0 0 3.16-8.37z"/><path class="cls-3" d="M139.56 324.19s-2.69 6.3-12.8 5.55c-8.54-.63-4.54-7.93-4.54-7.93a7.28 7.28 0 0 0-2.82 6.95c.83 3.49 4.62 4.93 7.88 4.64l8.56-3.89c3.16-1.44 3.72-5.32 3.72-5.32z"/><g class="cls-4"><path class="cls-5" d="M121 326.67a1.12 1.12 0 0 1-.45-2.15l7.19-3.16a18.45 18.45 0 0 1 5.41-1.78 4.66 4.66 0 0 1 4.58 2.53 1.12 1.12 0 1 1-2 .93 2.42 2.42 0 0 0-2.41-1.22 16.37 16.37 0 0 0-4.59 1.57l-7.24 3.18a1 1 0 0 1-.49.1z"/></g><path d="M255.13 298.47s-2.87 50.66-3.33 77.32c-.32 18.18 8.2 24 8.2 24s8.41-7 10.29-9.31 5.18-7.51 5.18-7.51-1.88-1.42-5-5.84c-1.41-2-3.58-4.34-5.07-7.93-1.29-3.09-2.42-8.38-3.43-12.42-1.68-6.7-1.63-16.33-2.4-26.37-.53-6.91-1.19-15.83-2.13-21.87a56.53 56.53 0 0 0-2.31-10.07z" style="mix-blend-mode:multiply" opacity=".1" fill="#7c5090"/><rect class="cls-24" x="196.64" y="50.62" width="30.38" height="3" rx=".55" ry=".55" transform="rotate(21.4 211.8 52.12)"/><path class="cls-24" d="M215 36.92s-10.63.47-14.61 7.95c-5.09 9.58 3 20.33 3 20.33s-1.66-12.88 2.38-19.1c4.93-7.64 9.23-9.18 9.23-9.18z"/><path class="cls-19" d="M146.77 83.6s15 1.91 20.38 2.4c4.86.44 20.31 1.41 20.31 1.41s-1.92 1 0 3.08c.89 1 7.74 3.94 7.74 3.94s-15.73-1.07-25.49-2.85c-14.04-2.58-22.94-7.98-22.94-7.98z"/><path class="cls-18" d="M153.75 378.76a139.8 139.8 0 0 1-2.88-.25 1.77 1.77 0 0 0-1.87 1.31c-.82 3.08-1.23 4.62-2.07 7.69a1.75 1.75 0 0 0 .27 1.47 1.83 1.83 0 0 0 1.31.75l2.49.27a5.74 5.74 0 0 0 6-4.22l.45-1.88a4 4 0 0 0-3.69-5.09zM151 381.2a.43.43 0 0 1 .45-.31l1.84.15a2 2 0 0 1 1.82 2.54l-.45 1.87a3.06 3.06 0 0 1-3.22 2.22l-1.58-.14a.46.46 0 0 1-.32-.18.42.42 0 0 1-.06-.36c.62-2.31.93-3.47 1.52-5.79zM205.84 380.4a1.15 1.15 0 0 0-1.11 1c-.5 3.64-.76 5.46-1.28 9.09a1.1 1.1 0 0 0 .28.92 1.23 1.23 0 0 0 .9.39 1.16 1.16 0 0 0 1.14-1l1.24-9.1a1.15 1.15 0 0 0-.29-.92 1.12 1.12 0 0 0-.88-.38zM222.2 379.81a1.15 1.15 0 0 0-1.09 1c-.38 3.65-.58 5.48-1 9.13a1.11 1.11 0 0 0 .31.91 1.16 1.16 0 0 0 .91.35 1.15 1.15 0 0 0 1.1-1c.39-3.66.58-5.48 1-9.14a1.11 1.11 0 0 0-.31-.9 1.19 1.19 0 0 0-.92-.35zM173.07 382.05c1.52.07 2.27.1 3.79.15a1 1 0 0 0 1-.83 1 1 0 0 0-1-1.22c-1.89-.07-2.83-.11-4.72-.2a1.53 1.53 0 0 0-1.57 1.22c-.68 3.3-1 4.95-1.73 8.25a1.5 1.5 0 0 0 .3 1.24 1.55 1.55 0 0 0 1.15.59l4.67.21a1 1 0 0 0 1.08-.83 1.06 1.06 0 0 0-.21-.84 1.08 1.08 0 0 0-.78-.39c-1.37 0-2.05-.08-3.42-.15a.3.3 0 0 1-.23-.11.28.28 0 0 1-.06-.25l.52-2.55 2.42.11a1 1 0 0 0 1.06-.83 1 1 0 0 0-.2-.84 1.09 1.09 0 0 0-.78-.39l-2.08-.09.41-2a.29.29 0 0 1 .38-.25zM165.13 379.57l-4.16-.26a1 1 0 0 0-1.08.8c-.84 3.67-1.27 5.51-2.13 9.18a1 1 0 0 0 .18.84 1.06 1.06 0 0 0 .78.42h.23a1 1 0 0 0 1.1-.8l.46-2c.91.07 1.36.1 2.28.15l1.57 2.5a1.18 1.18 0 0 0 .93.55h.06a1.17 1.17 0 0 0 1.08-.56 1.13 1.13 0 0 0 0-1.2l-1-1.6a4.88 4.88 0 0 0 2.93-3.41l.07-.31a3.59 3.59 0 0 0-.63-3 3.55 3.55 0 0 0-2.67-1.3zm1 4.11l-.13.32a2.22 2.22 0 0 1-2.23 1.69l-2.77-.19.86-3.81 2.83.18a1.45 1.45 0 0 1 1.12.56 1.5 1.5 0 0 1 .28 1.25zM186 381.17a1.06 1.06 0 0 0-1-.79h-1.09a1.05 1.05 0 0 0-.91.49c-2.18 3.59-3.3 5.37-5.56 8.93a1.14 1.14 0 0 0 0 1.18 1.18 1.18 0 0 0 1 .62 1.23 1.23 0 0 0 1.06-.55l.8-1.26c2.17.06 3.25.09 5.42.13l.26 1a1.19 1.19 0 0 0 1.13.88 1.23 1.23 0 0 0 1-.44 1.13 1.13 0 0 0 .22-1 190.2 190.2 0 0 1-2.33-9.19zm-.81 6.67l-3.63-.09c1-1.65 1.55-2.47 2.57-4.13.39 1.69.6 2.53 1.03 4.22zM217 380.06a1.16 1.16 0 0 0-1.1 1c-.27 2.41-.42 3.61-.7 6a512.08 512.08 0 0 1-2.91-6.31.92.92 0 0 0-.86-.53h-.9a.9.9 0 0 0-.88.79c-.48 3.73-.72 5.59-1.22 9.32a1.13 1.13 0 0 0 .29.91 1.18 1.18 0 0 0 .9.38 1.16 1.16 0 0 0 1.13-1l.78-6.06c1.16 2.51 1.74 3.77 2.93 6.27a1 1 0 0 0 1 .6h.67a1.06 1.06 0 0 0 1-.92c.43-3.69.64-5.54 1.05-9.23a1.15 1.15 0 0 0-.31-.9 1.13 1.13 0 0 0-.87-.32zM233.76 379.09a1.15 1.15 0 0 0-1.06 1.05c-.19 2.42-.3 3.62-.5 6a513.67 513.67 0 0 1-3.11-6.21.91.91 0 0 0-.88-.5h-.9a.93.93 0 0 0-.86.83 985.2 985.2 0 0 1-.91 9.35 1.16 1.16 0 0 0 .32.9 1.19 1.19 0 0 0 .91.35 1.14 1.14 0 0 0 1.1-1c.24-2.43.35-3.65.57-6.08 1.25 2.47 1.87 3.71 3.14 6.18a1.07 1.07 0 0 0 1 .56l.67-.05a1 1 0 0 0 1-.95l.75-9.25a1.17 1.17 0 0 0-.34-.9 1.1 1.1 0 0 0-.9-.28zM202.05 380.7a.66.66 0 0 0-.51-.23h-1a.66.66 0 0 0-.56.31 554.45 554.45 0 0 1-4.12 6.2l-2.15-6a.66.66 0 0 0-.63-.45h-1.26a.66.66 0 0 0-.66.56c-.63 3.78-1 5.68-1.59 9.46a1.1 1.1 0 0 0 .25.92 1.17 1.17 0 0 0 .89.41 1.14 1.14 0 0 0 1.16-1c.38-2.23.56-3.35.92-5.58l1.3 3.58a.81.81 0 0 0 .76.53H196a.8.8 0 0 0 .66-.35c1.05-1.54 1.58-2.31 2.61-3.86l-.81 5.34a1.14 1.14 0 0 0 .27.92 1.17 1.17 0 0 0 .9.39 1.14 1.14 0 0 0 1.14-1c.58-3.85.86-5.78 1.41-9.64a.65.65 0 0 0-.13-.51zM243.48 378.67a1.15 1.15 0 0 0-.91-.33l-1.33.12a5.77 5.77 0 0 0-5.16 5.14l-.15 1.93a4.06 4.06 0 0 0 1.18 3.31 4.16 4.16 0 0 0 3.32 1.12l2.1-.19a1.18 1.18 0 0 0 1-.65.61.61 0 0 0 .05-.12v-.06a.86.86 0 0 0 0-.24v-.06l.3-3.33a1.15 1.15 0 0 0-.89-1.22 1.21 1.21 0 0 0-1 .18 1.15 1.15 0 0 0-.49.84l-.23 2.46-.83.07a2 2 0 0 1-2.23-2.19l.14-1.93a3.06 3.06 0 0 1 2.78-2.72l1.59-.14a1.15 1.15 0 0 0 .7-2z"/></g></g></g></svg>